<?xml version="1.0" encoding="UTF-8" standalone="no"?>
<svg
   xmlns:dc="http://purl.org/dc/elements/1.1/"
   xmlns:cc="http://creativecommons.org/ns#"
   xmlns:rdf="http://www.w3.org/1999/02/22-rdf-syntax-ns#"
   xmlns:svg="http://www.w3.org/2000/svg"
   xmlns="http://www.w3.org/2000/svg"
   xmlns:xlink="http://www.w3.org/1999/xlink"
   version="1.1"
   width="300"
   height="300"
   viewBox="0 0 300.00 300.00"
   enable-background="new 0 0 300.00 300.00"
   xml:space="preserve"
   id="svg2"><metadata
     id="metadata258"><rdf:RDF><cc:Work
         rdf:about=""><dc:format>image/svg+xml</dc:format><dc:type
           rdf:resource="http://purl.org/dc/dcmitype/StillImage" /><dc:title></dc:title></cc:Work></rdf:RDF></metadata><defs
     id="defs256" />
 
	 <a xlink:href="person/1" id="linkToPerson"><g id="girlGroup">
	 <path
     fill="#FF695D"
     fill-opacity="0.203922"
     stroke-linejoin="round"
     d="M 120.381,33.9299C 120.381,51.94 105.785,66.541 87.7806,66.541C 69.7769,66.541 55.1806,51.94 55.1806,33.9299C 55.1806,15.9203 69.7769,1.31915 87.7806,1.31915C 105.785,1.31915 120.381,15.9203 120.381,33.9299 Z "
     id="path32" /><g
     id="g34"><defs
       id="defs36"><rect
         id="SVG_CLIPPER5_"
         x="1.5786"
         y="1.16492"
         width="298.737"
         height="298.835" /></defs><clipPath
       id="SVG_CLIPPER6_"><use
         xlink:href="#SVG_CLIPPER5_"
         overflow="visible"
         id="use40" /></clipPath><g
       clip-path="url(#SVG_CLIPPER6_)"
       id="g42"><path
         fill="#FFB309"
         fill-opacity="0.203922"
         stroke-linejoin="round"
         d="M 241.111,135.322C 241.111,148.566 230.377,159.303 217.138,159.303C 203.899,159.303 193.165,148.566 193.165,135.322C 193.165,122.078 203.899,111.341 217.138,111.341C 230.377,111.341 241.111,122.078 241.111,135.322 Z "
         id="path44" /></g></g><path
     fill="#FFFFFF"
     fill-opacity="0.803922"
     stroke-linejoin="round"
     d="M 209.945,137.546L 209.945,137.604L 215.628,139.606L 215.628,142.285L 207.139,138.666L 207.139,136.431L 215.628,132.83L 215.628,135.509L 209.945,137.546 Z "
     id="path46" /><path
     fill="#FFFFFF"
     fill-opacity="0.803922"
     stroke-linejoin="round"
     d="M 224.001,137.563L 224.001,137.505L 218.231,135.474L 218.231,132.83L 226.814,136.431L 226.814,138.666L 218.231,142.285L 218.231,139.624L 224.001,137.563 Z "
     id="path48" /><path
     fill="#FFFFFF"
     fill-opacity="0.803922"
     stroke-linejoin="round"
     d="M 84.2786,136.343C 82.995,135.981 82.0847,135.403 81.548,134.615C 81.0053,133.827 80.7369,132.87 80.7369,131.749L 80.7369,129.753C 80.7369,129.099 80.5911,128.598 80.3052,128.236C 80.0192,127.874 79.5816,127.693 78.9923,127.693L 78.9923,125.714C 79.5816,125.714 80.0192,125.539 80.3052,125.177C 80.5911,124.821 80.7369,124.308 80.7369,123.642L 80.7369,121.646C 80.7369,120.525 81.0053,119.568 81.548,118.786C 82.0847,118.004 82.995,117.426 84.2786,117.064L 84.8329,118.611C 84.2728,118.815 83.876,119.177 83.6484,119.703C 83.415,120.228 83.3042,120.876 83.3042,121.646L 83.3042,123.642C 83.3042,124.331 83.1583,124.938 82.8666,125.463C 82.5749,125.989 82.1314,126.403 81.5421,126.695C 82.1314,127.01 82.5749,127.43 82.8666,127.956C 83.1583,128.481 83.3042,129.082 83.3042,129.753L 83.3042,131.749C 83.3042,132.526 83.415,133.168 83.6484,133.693C 83.876,134.218 84.2728,134.58 84.8329,134.784L 84.2786,136.343 Z "
     id="path68" /><path
     fill="#FFFFFF"
     fill-opacity="0.803922"
     stroke-linejoin="round"
     d="M 85.6275,134.784C 86.1876,134.58 86.5786,134.218 86.812,133.693C 87.0395,133.168 87.1562,132.526 87.1562,131.749L 87.1562,129.753C 87.1562,129.07 87.3021,128.463 87.6055,127.938C 87.9089,127.413 88.3698,127.004 88.9883,126.706C 88.3698,126.415 87.9089,126 87.6055,125.469C 87.3021,124.944 87.1562,124.331 87.1562,123.642L 87.1562,121.646C 87.1562,120.876 87.0395,120.228 86.812,119.703C 86.5786,119.177 86.1876,118.815 85.6275,118.611L 86.1818,117.064C 87.4538,117.426 88.3581,118.004 88.9066,118.786C 89.4492,119.568 89.7235,120.525 89.7235,121.646L 89.7235,123.642C 89.7235,124.308 89.8635,124.821 90.1494,125.177C 90.4295,125.539 90.8729,125.714 91.4797,125.714L 91.4797,127.693C 90.8729,127.693 90.4295,127.874 90.1494,128.236C 89.8635,128.598 89.7235,129.099 89.7235,129.753L 89.7235,131.749C 89.7235,132.87 89.4492,133.827 88.9066,134.615C 88.3581,135.403 87.4538,135.981 86.1818,136.343L 85.6275,134.784 Z "
     id="path70" /><g
     id="g112"><path
       fill="#FFFFFF"
       fill-opacity="1"
       stroke-linejoin="round"
       d="M 189.315,69.3683L 186.901,69.3683L 184.877,64.2243L 177.095,64.2243L 175.186,69.3683L 172.759,69.3683L 179.896,51.3643L 182.154,51.3643L 189.315,69.3683 Z M 184.187,62.4239L 181.292,54.8727C 181.199,54.6235 181.106,54.2257 181.013,53.6791L 180.959,53.6791C 180.872,54.1855 180.77,54.5834 180.655,54.8727L 177.781,62.4239L 184.187,62.4239 Z "
       id="path114" /><path
       fill="#FFFFFF"
       fill-opacity="1"
       stroke-linejoin="round"
       d="M 201.93,69.3683L 191.943,69.3683L 191.943,51.3643L 201.404,51.3643L 201.404,53.1647L 194.046,53.1647L 194.046,59.3375L 200.879,59.3375L 200.879,61.1379L 194.046,61.1379L 194.046,67.5679L 201.93,67.5679L 201.93,69.3683 Z "
       id="path116" /><path
       fill="#FFFFFF"
       fill-opacity="1"
       stroke-linejoin="round"
       d="M 224.268,69.3683L 222.165,69.3683L 222.165,57.292C 222.165,56.3355 222.224,55.1674 222.342,53.7876L 222.289,53.7876C 222.081,54.5994 221.894,55.1808 221.73,55.5318L 215.37,69.3683L 214.306,69.3683L 207.958,55.6322C 207.774,55.2304 207.588,54.6155 207.399,53.7876L 207.346,53.7876C 207.414,54.5083 207.449,55.6845 207.449,57.3161L 207.449,69.3683L 205.346,69.3683L 205.346,51.3643L 208.217,51.3643L 213.941,63.9189C 214.381,64.8807 214.667,65.6001 214.799,66.077L 214.877,66.077C 215.249,65.0884 215.549,64.3516 215.776,63.8667L 221.615,51.3643L 224.268,51.3643L 224.268,69.3683 Z "
       id="path118" /><path
       fill="#FFFFFF"
       fill-opacity="1"
       stroke-linejoin="round"
       d="M 238.722,51.6456L 238.722,53.6791C 237.742,53.1647 236.707,52.9075 235.618,52.9075C 233.931,52.9075 232.582,53.6102 231.569,55.0154C 230.556,56.4206 230.049,58.3007 230.049,60.6557L 230.103,60.6557C 230.976,58.9196 232.409,58.0515 234.402,58.0515C 236.045,58.0515 237.35,58.5566 238.319,59.5666C 239.289,60.5766 239.773,61.9269 239.773,63.6175C 239.773,65.3857 239.224,66.8291 238.126,67.9477C 237.029,69.0662 235.633,69.6255 233.938,69.6255C 232.071,69.6255 230.606,68.9089 229.542,67.4755C 228.479,66.0421 227.947,64.0301 227.947,61.4393C 227.947,58.2994 228.649,55.7923 230.052,53.9183C 231.454,52.0442 233.307,51.1071 235.609,51.1071C 236.918,51.1071 237.955,51.2866 238.722,51.6456 Z M 233.975,59.8519C 232.85,59.8519 231.938,60.2069 231.238,60.9169C 230.539,61.6269 230.189,62.4641 230.189,63.4286C 230.189,64.6423 230.537,65.6785 231.232,66.5371C 231.927,67.3958 232.851,67.8251 234.004,67.8251C 235.102,67.8251 235.987,67.4514 236.661,66.7039C 237.334,65.9564 237.671,65.0093 237.671,63.8626C 237.671,62.6088 237.348,61.6269 236.702,60.9169C 236.056,60.2069 235.147,59.8519 233.975,59.8519 Z "
       id="path120" /></g><g
     id="g132"><path
       fill="#FFFFFF"
       fill-opacity="1"
       stroke-linejoin="round"
       d="M 8.72807,93.5179L 8.72807,91.0303C 9.02099,91.3089 9.37139,91.5601 9.77927,91.7838C 10.1872,92.0075 10.6169,92.1957 11.0686,92.3484C 11.5203,92.5011 11.9741,92.6197 12.4299,92.7041C 12.8857,92.7885 13.3065,92.8307 13.6925,92.8307C 15.0257,92.8307 16.0208,92.5835 16.6778,92.0892C 17.3348,91.5949 17.6633,90.8843 17.6633,89.9573C 17.6633,89.475 17.5531,89.0544 17.3327,88.6954C 17.1124,88.3364 16.8085,88.0095 16.4211,87.7148C 16.0338,87.4201 15.5752,87.1368 15.0455,86.8649C 14.5158,86.5929 13.9444,86.3082 13.3312,86.0109C 12.6851,85.692 12.0822,85.3705 11.5224,85.0464C 10.9626,84.7222 10.4753,84.3645 10.0606,83.9733C 9.64582,83.5822 9.32006,83.1388 9.08326,82.6431C 8.84647,82.1475 8.72807,81.5661 8.72807,80.899C 8.72807,80.0819 8.91491,79.3712 9.28858,78.7671C 9.66225,78.1629 10.1529,77.6653 10.7607,77.2741C 11.3684,76.8829 12.061,76.5916 12.8384,76.4C 13.6159,76.2085 14.4084,76.1127 15.2159,76.1127C 17.0555,76.1127 18.3969,76.3498 19.2401,76.824L 19.2401,79.1991C 18.1478,78.3418 16.7448,77.9131 15.0312,77.9131C 14.5576,77.9131 14.084,77.9626 13.6104,78.0618C 13.1368,78.1609 12.7152,78.323 12.3457,78.548C 11.9761,78.7731 11.675,79.0624 11.4423,79.4161C 11.2096,79.7697 11.0933,80.2011 11.0933,80.7101C 11.0933,81.1683 11.1816,81.5641 11.3581,81.8977C 11.5347,82.2312 11.7954,82.5353 12.1404,82.8099C 12.4853,83.0845 12.9055,83.3511 13.401,83.6097C 13.8965,83.8682 14.4672,84.1515 15.1133,84.4596C 15.7785,84.7758 16.4081,85.1087 17.0022,85.4583C 17.5962,85.8079 18.1177,86.1957 18.5666,86.6217C 19.0156,87.0477 19.3715,87.5186 19.6343,88.0343C 19.8971,88.55 20.0285,89.1415 20.0285,89.8086C 20.0285,90.6927 19.8485,91.4409 19.4885,92.0531C 19.1285,92.6652 18.6433,93.1629 18.0328,93.546C 17.4224,93.9291 16.7182,94.2058 15.9202,94.3759C 15.1222,94.546 14.2811,94.6311 13.3969,94.6311C 13.1012,94.6311 12.7371,94.6063 12.3046,94.5567C 11.8721,94.5072 11.43,94.4348 10.9783,94.3397C 10.5266,94.2446 10.0996,94.1267 9.69715,93.9861C 9.29474,93.8454 8.97171,93.6893 8.72807,93.5179 Z "
       id="path134" /><rect
       x="23.1821"
       y="75.3411"
       fill="#FFFFFF"
       fill-opacity="1"
       stroke-linejoin="round"
       width="2.1024"
       height="19.0328"
       id="rect136" /><path
       fill="#FFFFFF"
       fill-opacity="1"
       stroke-linejoin="round"
       d="M 30.5282,78.1703C 30.1668,78.1703 29.8595,78.0497 29.6063,77.8086C 29.3531,77.5675 29.2265,77.262 29.2265,76.8923C 29.2265,76.5199 29.3531,76.2111 29.6063,75.966C 29.8595,75.7208 30.1668,75.5983 30.5282,75.5983C 30.8977,75.5983 31.2112,75.7208 31.4685,75.966C 31.7258,76.2111 31.8545,76.5199 31.8545,76.8923C 31.8545,77.246 31.7258,77.5474 31.4685,77.7965C 31.2112,78.0457 30.8977,78.1703 30.5282,78.1703 Z M 31.5917,94.3739L 29.4893,94.3739L 29.4893,81.5139L 31.5917,81.5139L 31.5917,94.3739 Z "
       id="path138" /><path
       fill="#FFFFFF"
       fill-opacity="1"
       stroke-linejoin="round"
       d="M 46.8341,94.3739L 44.7317,94.3739L 44.7317,87.112C 44.7317,84.4087 43.6928,83.0571 41.615,83.0571C 40.5419,83.0571 39.6543,83.4402 38.9521,84.2064C 38.25,84.9727 37.8989,85.9412 37.8989,87.112L 37.8989,94.3739L 35.7965,94.3739L 35.7965,81.5139L 37.8989,81.5139L 37.8989,83.7604L 37.9523,83.7604C 38.9597,82.0912 40.4174,81.2567 42.3254,81.2567C 43.7845,81.2567 44.9007,81.7095 45.6741,82.615C 46.4474,83.5206 46.8341,84.828 46.8341,86.5373L 46.8341,94.3739 Z "
       id="path140" /><path
       fill="#FFFFFF"
       fill-opacity="1"
       stroke-linejoin="round"
       d="M 62.0765,93.4174C 62.0765,98.1703 59.7975,100.547 55.2396,100.547C 53.6381,100.547 52.2379,100.233 51.0389,99.6063L 51.0389,97.4603C 52.4952,98.3176 53.8831,98.7463 55.2026,98.7463C 58.3836,98.7463 59.9741,97.0129 59.9741,93.546L 59.9741,92.0993L 59.9248,92.0993C 58.9256,93.7872 57.4227,94.6311 55.4161,94.6311C 53.7846,94.6311 52.472,94.0631 51.4782,92.9271C 50.4845,91.7912 49.9877,90.2667 49.9877,88.3538C 49.9877,86.1837 50.5229,84.4583 51.5932,83.1777C 52.6636,81.897 54.1295,81.2567 55.991,81.2567C 57.7567,81.2567 59.0666,81.9747 59.9207,83.4107L 59.9741,83.4107L 59.9741,81.5139L 62.0765,81.5139L 62.0765,93.4174 Z M 59.9741,88.5467L 59.9741,86.69C 59.9741,85.6934 59.6196,84.8387 58.9106,84.1261C 58.2015,83.4134 57.3187,83.0571 56.262,83.0571C 54.959,83.0571 53.9379,83.5092 53.1988,84.4134C 52.4596,85.3176 52.0901,86.5842 52.0901,88.2131C 52.0901,89.6143 52.4446,90.7342 53.1536,91.5728C 53.8626,92.4114 54.8002,92.8307 55.9664,92.8307C 57.1517,92.8307 58.116,92.4295 58.8592,91.6271C 59.6025,90.8246 59.9741,89.7979 59.9741,88.5467 Z "
       id="path142" /></g><path
     fill="#42210B"
     fill-opacity="1"
     stroke-linejoin="round"
     d="M 204.547,273.729C 204.547,281.891 197.933,288.506 189.774,288.506L 112.009,288.506C 103.85,288.506 97.236,281.891 97.236,273.729L 97.236,161.72C 97.236,153.559 103.85,146.943 112.009,146.943L 189.774,146.943C 197.933,146.943 204.547,153.559 204.547,161.72L 204.547,273.729 Z "
     id="path162" /><rect
     x="33.0606"
     y="245.816"
     fill="#8B6239"
     fill-opacity="1"
     stroke-linejoin="round"
     width="235.772"
     height="54.1844"
     id="rect164" /><rect
     x="141.003"
     y="162.641"
     fill="#E5E5E5"
     fill-opacity="1"
     stroke-linejoin="round"
     width="19.776"
     height="12.2623"
     id="rect166" /><line
     fill="none"
     stroke-width="2.93067"
     stroke-linejoin="miter"
     stroke="#B2B2B2"
     stroke-opacity="1"
     x1="150.465"
     y1="167.32"
     x2="150.465"
     y2="172.835"
     id="line168" /><path
     fill="#FF7257"
     fill-opacity="1"
     stroke-width="2.93067"
     stroke-linejoin="miter"
     d="M 221.678,221.597C 213.198,204.63 195.142,167.139 191.722,164.266C 188.303,161.392 170.259,158.519 159.926,158.519C 159.926,158.519 161.868,171.244 150.465,171.244C 139.061,171.244 141.003,158.519 141.003,158.519C 130.671,158.519 112.627,161.392 109.207,164.266C 105.787,167.139 87.7314,204.63 79.251,221.597C 70.7706,238.563 81.5759,239.795 81.5759,239.795L 111.258,239.795L 111.258,225.565C 106.882,224.06 97.4429,222.281 97.4429,222.281C 100.315,215.303 117.003,183.422 117.003,183.422L 118.781,238.29L 150.465,238.29L 182.148,238.29L 183.926,183.422C 183.926,183.422 200.614,215.303 203.486,222.281C 203.486,222.281 194.048,224.06 189.67,225.565L 189.67,239.795L 219.353,239.795C 219.353,239.795 230.158,238.563 221.678,221.597 Z "
     id="path170" /><path
     fill="#FFDAA2"
     fill-opacity="1"
     stroke-width="2.93067"
     stroke-linejoin="miter"
     d="M 159.926,162.487C 159.926,162.487 158.588,167.32 150.465,167.32C 142.341,167.32 141.003,162.487 141.003,162.487L 141.003,139.542L 159.926,139.542L 159.926,162.487 Z "
     id="path172" /><path
     fill="#FFDAA2"
     fill-opacity="1"
     stroke-width="2.93067"
     stroke-linejoin="miter"
     d="M 150.465,99.5483C 132.348,92.4794 124.255,99.5483 124.255,99.5483C 124.255,99.5483 125.661,124.451 126.311,129.494C 127.852,141.447 143.398,149.416 150.465,149.416C 157.531,149.416 173.077,141.447 174.619,129.494C 175.268,124.451 176.674,99.5483 176.674,99.5483C 176.674,99.5483 168.581,92.4794 150.465,99.5483 Z "
     id="path174" /><path
     fill="#F7D197"
     fill-opacity="1"
     stroke-width="2.93067"
     stroke-linejoin="miter"
     d="M 125.092,113.457C 125.092,113.457 120.487,108.896 118.859,111.63C 115.261,117.671 121.556,119.931 121.975,125.638C 122.275,129.722 125.024,129.69 126.117,127.665C 127.21,125.638 126.749,114.828 125.092,113.457 Z "
     id="path176" /><path
     fill="#F7D197"
     fill-opacity="1"
     stroke-width="2.93067"
     stroke-linejoin="miter"
     d="M 175.838,113.457C 175.838,113.457 180.442,108.896 182.07,111.63C 185.668,117.671 179.373,119.931 178.954,125.638C 178.654,129.722 175.906,129.69 174.812,127.665C 173.719,125.638 174.18,114.828 175.838,113.457 Z "
     id="path178" /><path
     fill="#E8B23C"
     fill-opacity="1"
     stroke-width="2.93067"
     stroke-linejoin="miter"
     d="M 150.465,140.433C 145.045,140.433 142.24,138.894 142.24,136.636C 142.24,134.379 145.558,135.713 150.465,135.713C 155.371,135.713 158.689,134.379 158.689,136.636C 158.689,138.894 155.884,140.433 150.465,140.433 Z M 175.719,121.229L 174.693,121.229C 174.693,121.229 175.991,131.799 150.465,131.799C 124.938,131.799 126.236,121.229 126.236,121.229L 125.21,121.229C 125.21,121.229 123.757,133.182 128.596,140.008C 135.264,149.416 150.465,149.416 150.465,149.416C 150.465,149.416 165.665,149.416 172.333,140.008C 177.172,133.182 175.719,121.229 175.719,121.229 Z "
     id="path180" /><path
     fill="#E8B23C"
     fill-opacity="1"
     stroke-width="2.93067"
     stroke-linejoin="miter"
     d="M 175.719,121.229C 175.719,121.229 174.645,113.673 178.293,111.55C 178.293,111.55 184.711,90.1345 179.171,84.4902C 173.632,78.846 165.733,75.2543 159.064,74.5357C 152.396,73.8177 145.01,72.4834 141.522,68.6863C 141.522,68.6863 143.266,73.5095 145.625,73.8177C 145.625,73.8177 130.135,76.5883 120.183,73.2017C 120.183,73.2017 122.953,80.6931 129.211,82.0275C 129.211,82.0275 116.08,85.1058 108.283,82.5403C 108.283,82.5403 114.477,95.2109 124.255,99.5481C 124.255,99.5481 131.673,96.1889 135.264,97.6255C 135.264,97.6255 135.982,99.6781 132.802,101.012C 132.802,101.012 141.522,100.704 145.317,98.8571C 145.317,98.8571 145.625,100.294 145.42,101.628C 145.42,101.628 155.365,99.4279 160.497,96.7824C 160.497,96.7824 164.809,99.9859 163.373,101.32C 163.373,101.32 173.735,101.731 175.923,99.8832C 175.923,99.8832 174.728,118.458 175.719,121.229 Z "
     id="path182" /><path
     fill="#E8B23C"
     fill-opacity="1"
     stroke-width="2.93067"
     stroke-linejoin="miter"
     d="M 125.21,121.229C 125.21,121.229 125.585,112.777 121.038,110.846C 121.038,110.846 118.644,97.831 119.876,94.9577L 125.006,99.2306C 125.006,99.2306 126.408,117.637 125.709,121.229L 125.21,121.229 Z "
     id="path184" /><path
     fill="#F1F1F1"
     fill-opacity="1"
     stroke-width="2.93067"
     stroke-linejoin="miter"
     d="M 150.465,167.32C 150.465,167.32 142.548,167.344 140.086,172.835C 140.086,172.835 137.458,162.777 141.003,158.519C 141.003,158.519 141.967,166.63 150.465,167.32 Z "
     id="path186" /><path
     fill="#F1F1F1"
     fill-opacity="1"
     stroke-width="2.93067"
     stroke-linejoin="miter"
     d="M 150.465,167.32C 150.465,167.32 158.381,167.344 160.843,172.835C 160.843,172.835 163.471,162.777 159.926,158.519C 159.926,158.519 158.962,166.63 150.465,167.32 Z "
     id="path188" /><path
     fill="#4D4D4D"
     fill-opacity="1"
     stroke-width="2.93067"
     stroke-linejoin="miter"
     d="M 56.5328,221.114C 56.5328,221.568 56.1657,221.935 55.712,221.935L 53.7534,221.935C 53.2997,221.935 52.9322,221.568 52.9322,221.114L 52.9322,219.155C 52.9322,218.702 53.2997,218.334 53.7534,218.334L 55.712,218.334C 56.1657,218.334 56.5328,218.702 56.5328,219.155L 56.5328,221.114 Z "
     id="path190" /><path
     fill="none"
     stroke-width="8.79067"
     stroke-linejoin="miter"
     stroke="#4D4D4D"
     stroke-opacity="1"
     d="M 58.5308,165.313C 58.5308,165.313 21.5968,166.318 41.4987,221.509"
     id="path192" /><path
     fill="#1A1A1A"
     fill-opacity="1"
     stroke-width="8.79067"
     stroke-linejoin="miter"
     d="M 64.0457,222.381L 64.0457,221.886C 64.0457,221.195 63.6786,220.636 63.2249,220.636L 33.4072,220.636C 32.9535,220.636 32.5864,221.195 32.5864,221.886L 32.5864,222.381L 64.0457,222.381 Z "
     id="path194" /><path
     fill="#1A1A1A"
     fill-opacity="1"
     stroke-width="8.79067"
     stroke-linejoin="miter"
     d="M 61.3006,165.313C 61.3006,166.844 60.0609,168.084 58.531,168.084C 57.0007,168.084 55.7609,166.844 55.7609,165.313C 55.7609,163.783 57.0007,162.542 58.531,162.542C 60.0609,162.542 61.3006,163.783 61.3006,165.313 Z "
     id="path196" /><path
     fill="#FBED21"
     fill-opacity="1"
     stroke-width="8.79067"
     stroke-linejoin="miter"
     d="M 75.6469,171.266C 78.2911,173.91 78.2911,178.2 75.6469,180.845C 73.0019,183.489 68.7158,183.489 66.0716,180.845C 63.4278,178.2 63.4267,173.911 66.0709,171.266C 68.7158,168.621 73.0027,168.621 75.6469,171.266 Z "
     id="path198" /><path
     fill="#1A1A1A"
     fill-opacity="1"
     stroke-width="8.79067"
     stroke-linejoin="miter"
     d="M 59.47,164.662C 52.3395,171.795 52.3395,183.362 59.47,190.495L 85.2951,164.662C 78.1635,157.529 66.6016,157.529 59.47,164.662 Z "
     id="path200" /><path
     fill="#FBED21"
     fill-opacity="0.203922"
     stroke-width="8.79067"
     stroke-linejoin="miter"
     d="M 59.47,190.495L 67.2148,239.795L 199.348,239.795L 85.2951,164.662L 59.47,190.495 Z "
     id="path202" /><path
     fill="#CBCBCB"
     fill-opacity="1"
     stroke-width="8.79067"
     stroke-linejoin="miter"
     d="M 194.595,194.111C 193.774,192.743 191.039,192.468 191.039,192.468L 150.464,192.468L 109.89,192.468C 109.89,192.468 107.155,192.743 106.334,194.111C 105.514,195.479 107.155,238.991 107.155,238.991L 150.464,238.991L 193.774,238.991C 193.774,238.991 195.415,195.479 194.595,194.111 Z "
     id="path204" /><path
     fill="#E5E5E5"
     fill-opacity="1"
     stroke-width="8.79067"
     stroke-linejoin="miter"
     d="M 194.595,194.916C 193.774,193.547 191.039,193.273 191.039,193.273L 150.464,193.273L 109.89,193.273C 109.89,193.273 107.155,193.547 106.334,194.916C 105.514,196.283 107.155,239.795 107.155,239.795L 150.464,239.795L 193.774,239.795C 193.774,239.795 195.415,196.283 194.595,194.916 Z "
     id="path206" /><path
     fill="none"
     stroke-width="2.93067"
     stroke-linejoin="miter"
     stroke="#CBCBCB"
     stroke-opacity="1"
     d="M 154.065,216.534C 154.065,218.523 152.453,220.136 150.464,220.136C 148.476,220.136 146.864,218.523 146.864,216.534C 146.864,214.545 148.476,212.933 150.464,212.933C 152.453,212.933 154.065,214.545 154.065,216.534 Z "
     id="path208" /><path
     fill="none"
     stroke-width="2.93067"
     stroke-linejoin="miter"
     stroke="#CBCBCB"
     stroke-opacity="1"
     d="M 154.065,212.933C 154.065,214.922 152.453,216.534 150.464,216.534C 148.476,216.534 146.864,214.922 146.864,212.933C 146.864,210.944 148.476,209.332 150.464,209.332C 152.453,209.332 154.065,210.944 154.065,212.933 Z "
     id="path210" /><path
     fill="none"
     stroke-width="2.93067"
     stroke-linejoin="miter"
     stroke="#CBCBCB"
     stroke-opacity="1"
     d="M 145.547,215.215C 147.268,214.221 149.471,214.812 150.465,216.533C 151.458,218.256 150.868,220.459 149.147,221.453C 147.425,222.448 145.223,221.857 144.229,220.135C 143.234,218.413 143.824,216.209 145.547,215.215 Z "
     id="path212" /><path
     fill="none"
     stroke-width="2.93067"
     stroke-linejoin="miter"
     stroke="#CBCBCB"
     stroke-opacity="1"
     d="M 151.781,221.453C 150.061,220.459 149.469,218.255 150.464,216.533C 151.458,214.812 153.66,214.221 155.382,215.215C 157.104,216.211 157.694,218.413 156.699,220.135C 155.706,221.858 153.504,222.449 151.781,221.453 Z "
     id="path214" /><path
     fill="#F1F1F1"
     fill-opacity="1"
     stroke-width="2.93067"
     stroke-linejoin="miter"
     d="M 69.7079,230.153L 29.6073,230.153L 29.6073,226.229L 69.7079,226.229C 69.7079,226.229 69.4637,226.374 69.4637,228.191C 69.4637,230.009 69.7079,230.153 69.7079,230.153 Z "
     id="path216" /><path
     fill="#F1F1F1"
     fill-opacity="1"
     stroke-width="2.93067"
     stroke-linejoin="miter"
     d="M 73.9654,238.671L 25.3445,238.671L 25.3445,232.655L 73.9654,232.655C 73.9654,232.655 73.6689,232.877 73.6689,235.663C 73.6689,238.449 73.9654,238.671 73.9654,238.671 Z "
     id="path218" /><path
     fill="#F1F1F1"
     fill-opacity="1"
     stroke-width="2.93067"
     stroke-linejoin="miter"
     d="M 75.5556,224.639L 27.134,224.639L 27.134,222.895L 75.5556,222.895C 75.5556,222.895 75.2606,222.958 75.2606,223.767C 75.2606,224.575 75.5556,224.639 75.5556,224.639 Z "
     id="path220" /><path
     fill="#29AAE1"
     fill-opacity="1"
     stroke-width="2.93067"
     stroke-linejoin="miter"
     d="M 76.0026,223.257L 76.0026,222.381L 27.527,222.381L 26.7973,222.381L 26.7973,223.257L 26.7973,224.277L 26.7973,225.152L 27.527,225.152L 76.0026,225.152L 76.0026,224.277L 27.527,224.277L 27.527,223.257L 76.0026,223.257 Z "
     id="path222" /><path
     fill="#C0272D"
     fill-opacity="1"
     stroke-width="2.93067"
     stroke-linejoin="miter"
     d="M 70.3234,226.921L 70.3234,225.152L 28.7243,225.152L 28.7243,225.153L 28.7243,226.921L 28.7243,229.821L 28.7243,231.59L 30.4906,231.59L 70.3234,231.59L 70.3234,229.821L 30.4906,229.821L 30.4906,226.921L 70.3234,226.921 Z "
     id="path224" /><path
     fill="#8BC53F"
     fill-opacity="1"
     stroke-width="2.93067"
     stroke-linejoin="miter"
     d="M 74.94,233.358L 74.94,231.59L 24.1077,231.59L 24.1077,233.358L 24.1077,238.027L 24.1077,239.795L 25.8739,239.795L 74.94,239.795L 74.94,238.027L 25.8739,238.027L 25.8739,233.358L 74.94,233.358 Z "
     id="path226" /><path
     fill="none"
     stroke-width="7.16667"
     stroke-linejoin="miter"
     stroke="#E5E5E5"
     stroke-opacity="1"
     d="M 240.808,224.393C 240.808,224.393 244.649,221.703 245.673,224.393C 246.698,227.082 245.033,231.051 243.241,231.819C 241.448,232.589 237.864,230.923 237.864,230.923"
     id="path228" /><path
     fill="#B2B2B2"
     fill-opacity="1"
     stroke-width="7.16667"
     stroke-linejoin="miter"
     d="M 217.138,238.223C 217.205,239.101 217.929,239.795 218.825,239.795L 242.437,239.795C 243.331,239.795 244.057,239.101 244.123,238.223L 217.138,238.223 Z "
     id="path230" /><path
     fill="#F1F1F1"
     fill-opacity="1"
     stroke-width="7.16667"
     stroke-linejoin="miter"
     d="M 219.814,221.448L 219.814,227.274C 219.814,233.25 224.656,238.095 230.631,238.095C 236.605,238.095 241.448,233.25 241.448,227.274L 241.448,221.448L 219.814,221.448 Z "
     id="path232" /><rect
     x="215.589"
     y="237.326"
     fill="#E5E5E5"
     fill-opacity="1"
     stroke-width="7.16667"
     stroke-linejoin="miter"
     width="30.0843"
     height="1.53676"
     id="rect234" /><path
     fill="#603813"
     fill-opacity="1"
     stroke-width="7.16667"
     stroke-linejoin="miter"
     d="M 284.426,243.047C 284.426,244.86 282.956,246.33 281.144,246.33L 20.7505,246.33C 18.9375,246.33 17.4677,244.86 17.4677,243.047C 17.4677,241.233 18.9375,239.763 20.7505,239.763L 281.144,239.763C 282.956,239.763 284.426,241.233 284.426,243.047 Z "
     id="path236" /><path
     fill="#F1F1F1"
     fill-opacity="1"
     stroke-linejoin="round"
     d="M 148.45,290.403C 148.442,290.386 148.433,290.369 148.426,290.352C 148.433,290.37 148.442,290.386 148.45,290.403 Z "
     id="path238" /><path
     fill="#F1F1F1"
     fill-opacity="1"
     stroke-linejoin="round"
     d="M 148.25,289.91C 148.297,290.059 148.354,290.204 148.421,290.342C 148.353,290.201 148.297,290.056 148.251,289.91L 148.25,289.91 Z "
     id="path240" /><path
     fill="none"
     stroke-width="6.66667"
     stroke-linejoin="miter"
     stroke="#E5E5E5"
     stroke-opacity="1"
     d="M 145.507,114.127C 145.507,114.127 146.14,111.795 150.465,111.795"
     id="path242" /><path
     fill="none"
     stroke-width="6.66667"
     stroke-linejoin="miter"
     stroke="#E5E5E5"
     stroke-opacity="1"
     d="M 155.422,114.127C 155.422,114.127 154.789,111.795 150.465,111.795"
     id="path244" /><path
     fill="none"
     stroke-width="6.66667"
     stroke-linejoin="miter"
     stroke="#CBCBCB"
     stroke-opacity="1"
     d="M 125.904,110.052C 125.904,110.052 124.649,120.423 129.166,123.238C 133.684,126.054 144.496,123.238 145.236,119.238C 145.977,115.238 145.236,109.608 145.236,109.608"
     id="path246" /><path
     fill="none"
     stroke-width="6.66667"
     stroke-linejoin="miter"
     stroke="#CBCBCB"
     stroke-opacity="1"
     d="M 175.025,110.052C 175.025,110.052 176.28,120.423 171.763,123.238C 167.246,126.054 156.434,123.238 155.693,119.238C 154.953,115.238 155.693,109.608 155.693,109.608"
     id="path248" /><path
     fill="#754C24"
     fill-opacity="1"
     stroke-width="6.66667"
     stroke-linejoin="miter"
     d="M 147.088,109.817C 147.088,110.643 146.419,111.312 145.594,111.312L 125.624,111.312C 124.799,111.312 124.13,110.643 124.13,109.817L 124.13,109.398C 124.13,108.573 124.799,107.904 125.624,107.904L 145.594,107.904C 146.419,107.904 147.088,108.573 147.088,109.398L 147.088,109.817 Z "
     id="path250" /><path
     fill="#754C24"
     fill-opacity="1"
     stroke-width="6.66667"
     stroke-linejoin="miter"
     d="M 153.842,110.889C 153.842,111.714 154.511,112.383 155.335,112.383L 175.305,112.383C 176.13,112.383 176.799,111.714 176.799,110.889L 176.799,110.47C 176.799,109.645 176.13,108.976 175.305,108.976L 155.335,108.976C 154.511,108.976 153.842,109.645 153.842,110.47L 153.842,110.889 Z "
     id="path252" /><text
     id="text3432"
     y="40.902954"
     x="76.383682"
     style="font-style:normal;font-variant:normal;font-weight:bold;font-stretch:normal;font-size:17.5px;line-height:125%;font-family:sans-serif;-inkscape-font-specification:'sans-serif Bold';letter-spacing:0px;word-spacing:0px;fill:#000000;fill-opacity:1;stroke:none;stroke-width:1px;stroke-linecap:butt;stroke-linejoin:miter;stroke-opacity:1"
     xml:space="preserve"><tspan
       y="40.902954"
       x="76.383682"
       id="tspan3434">C#</tspan></text>
 <animate 
    xlink:href="#girlGroup" begin="girlGroup.mouseover"
    attributeType="CSS" attributeName="opacity" from="1" to="0.5" dur="0.6s" repeatCount="0"
    fill="freeze" />
 <animate 
    xlink:href="#girlGroup" begin="girlGroup.mouseout"
    attributeType="CSS" attributeName="opacity" from="0.6" to="1" dur="0.2s" repeatCount="0"
    fill="freeze" />	
		 </g></a>
	   </svg>