<?xml version="1.0" encoding="UTF-8" standalone="no"?>
<svg
   xmlns:dc="http://purl.org/dc/elements/1.1/"
   xmlns:cc="http://creativecommons.org/ns#"
   xmlns:rdf="http://www.w3.org/1999/02/22-rdf-syntax-ns#"
   xmlns:svg="http://www.w3.org/2000/svg"
   xmlns="http://www.w3.org/2000/svg"
   xmlns:xlink="http://www.w3.org/1999/xlink"
   xml:space="preserve"
   width="81.7135mm"
   height="69.0058mm"
   style="shape-rendering:geometricPrecision; text-rendering:geometricPrecision; image-rendering:optimizeQuality; fill-rule:evenodd; clip-rule:evenodd"
   viewBox="0 0 56.8511 48.0099"
   id="svg2"
   version="1.1"><metadata
     id="metadata99"><rdf:RDF><cc:Work
         rdf:about=""><dc:format>image/svg+xml</dc:format><dc:type
           rdf:resource="http://purl.org/dc/dcmitype/StillImage" /><dc:title></dc:title></cc:Work></rdf:RDF></metadata><defs
     id="defs4"><linearGradient
       id="id0"
       gradientUnits="userSpaceOnUse"
       x1="4.7866"
       y1="40.2204"
       x2="4.7866"
       y2="47.8872"><stop
         offset="0"
         style="stop-color:#CC6633"
         id="stop9" /><stop
         offset="1"
         style="stop-color:#A65D2D"
         id="stop11" /></linearGradient><linearGradient
       id="id1"
       gradientUnits="userSpaceOnUse"
       xlink:href="#id0"
       x1="42.0173"
       y1="36.2542"
       x2="42.0173"
       y2="46.845" /><linearGradient
       id="id2"
       gradientUnits="userSpaceOnUse"
       xlink:href="#id0"
       x1="29.4111"
       y1="36.0171"
       x2="29.4111"
       y2="47.3983" /><linearGradient
       id="id3"
       gradientUnits="userSpaceOnUse"
       xlink:href="#id0"
       x1="13.9639"
       y1="40.0448"
       x2="13.9639"
       y2="47.8195" /><linearGradient
       id="id4"
       gradientUnits="userSpaceOnUse"
       x1="21.599"
       y1="-1.80878"
       x2="31.9944"
       y2="11.4744"><stop
         offset="0"
         style="stop-color:#605D5C"
         id="stop17" /><stop
         offset="1"
         style="stop-color:#1F1A17"
         id="stop19" /></linearGradient><linearGradient
       id="id5"
       gradientUnits="userSpaceOnUse"
       x1="19.2189"
       y1="6.36328"
       x2="19.4882"
       y2="9.59484"><stop
         offset="0"
         style="stop-color:red"
         id="stop22" /><stop
         offset="1"
         style="stop-color:#910000"
         id="stop24" /></linearGradient><linearGradient
       id="id6"
       gradientUnits="userSpaceOnUse"
       xlink:href="#id4"
       x1="41.6103"
       y1="23.0667"
       x2="43.4973"
       y2="26.9122" /><linearGradient
       id="id7"
       gradientUnits="userSpaceOnUse"
       x1="30.9716"
       y1="35.5396"
       x2="41.1462"
       y2="22.8214"><stop
         offset="0"
         style="stop-color:#CC3300"
         id="stop28" /><stop
         offset="1"
         style="stop-color:#FF8A8A"
         id="stop30" /></linearGradient><linearGradient
       id="id8"
       gradientUnits="userSpaceOnUse"
       xlink:href="#id4"
       x1="9.3816"
       y1="4.51019"
       x2="17.4304"
       y2="12.791" /><linearGradient
       xlink:href="#id0"
       id="linearGradient3510"
       gradientUnits="userSpaceOnUse"
       x1="4.7866"
       y1="40.2204"
       x2="4.7866"
       y2="47.8872" /><linearGradient
       xlink:href="#id4"
       id="linearGradient3512"
       gradientUnits="userSpaceOnUse"
       x1="21.599"
       y1="-1.80878"
       x2="31.9944"
       y2="11.4744" /></defs>
	   <a xlink:href="person/2" id="linkToPerson"><g id="girlGroup">
	<path
         class="fil0 str0"
         d="m 29.8936,29.9641 0.456543,0.723706 -0.415773,0.262223 -0.456473,-0.723706 -0.269459,0.169969 c -0.131286,0.08279 -0.306403,0.04314 -0.389195,-0.08808 l 0,0 c -0.08279,-0.131286 -0.04314,-0.306403 0.08808,-0.389195 l 0.954691,-0.60223 c 0.131216,-0.08279 0.306403,-0.04314 0.389195,0.08815 l 0,0 c 0.08279,0.131286 0.04314,0.306403 -0.08815,0.389195 L 29.8936,29.964101 Z"
         id="path35"
         style="fill:#7f7f7f;stroke:#191919;stroke-width:0.246291;stroke-linecap:round;stroke-linejoin:round" /><path
         class="fil0 str0"
         d="m 31.9366,29.0886 0.456543,0.723706 -0.415773,0.262223 -0.456473,-0.723706 -0.269459,0.169969 c -0.131286,0.08279 -0.306403,0.04314 -0.389195,-0.08808 l 0,0 c -0.08279,-0.131286 -0.04314,-0.306403 0.08808,-0.389195 l 0.954691,-0.60223 c 0.131216,-0.08279 0.306403,-0.04314 0.389195,0.08815 l 0,0 c 0.08279,0.131286 0.04314,0.306403 -0.08815,0.389195 L 31.9366,29.088601 Z"
         id="path37"
         style="fill:#7f7f7f;stroke:#191919;stroke-width:0.246291;stroke-linecap:round;stroke-linejoin:round" /><path
         class="fil0 str1"
         d="m 33.8246,27.9631 0.55325,0.632008 -0.363105,0.317813 -0.553181,-0.632008 -0.235298,0.206008 c -0.114657,0.100325 -0.29054,0.08864 -0.390865,-0.02602 l 0,0 c -0.100395,-0.114588 -0.08871,-0.29047 0.02595,-0.390865 l 0.833702,-0.729759 c 0.114588,-0.100325 0.29047,-0.08864 0.390865,0.02595 l 0,0 c 0.100325,0.114657 0.08864,0.29054 -0.02602,0.390865 L 33.8246,27.9631 Z"
         id="path39"
         style="fill:#7f7f7f;stroke:#191919;stroke-width:0.245317;stroke-linecap:round;stroke-linejoin:round" /><path
         class="fil0 str2"
         d="m 35.2088,26.8008 0.569948,0.475676 -0.273286,0.327414 -0.569948,-0.475676 -0.177065,0.2122 c -0.08627,0.103387 -0.24149,0.117371 -0.344807,0.0311 l 0,0 c -0.103387,-0.08627 -0.117371,-0.241421 -0.0311,-0.344807 l 0.627416,-0.751814 c 0.08627,-0.103387 0.24149,-0.11737 0.344807,-0.0311 l 0,0 c 0.103387,0.08627 0.117371,0.241421 0.0311,0.344807 L 35.2088,26.8008 Z"
         id="path41"
         style="fill:#7f7f7f;stroke:#191919;stroke-width:0.242047;stroke-linecap:round;stroke-linejoin:round" /><path
         class="fil0 str3"
         d="m 36.8237,24.4372 0.764615,0.457447 -0.26285,0.439219 -0.764546,-0.457447 -0.170316,0.284626 c -0.083,0.13873 -0.264311,0.184301 -0.402971,0.101299 l 0,0 c -0.13873,-0.083 -0.184301,-0.264311 -0.101299,-0.402971 l 0.603413,-1.00861 c 0.083,-0.13866 0.26438,-0.184231 0.403041,-0.10123 l 0,0 c 0.13866,0.08293 0.184231,0.264311 0.101299,0.402971 L 36.8237,24.4372 Z"
         id="path43"
         style="fill:#7f7f7f;stroke:#191919;stroke-width:0.24524701;stroke-linecap:round;stroke-linejoin:round" /><path
         class="fil1 str4"
         d="m 39.4882,23.3714 -1.50168,0 c 0,0 -0.711322,3.3195 -3.79372,5.13732 -3.08239,1.81782 -5.2954,2.60818 -5.2954,2.60818 l -0.390865,1.82102 0.469901,1.18234 14.2264,0.869393 0.408537,-1.43579 -0.01336,-4.88707 -2.29204,-0.158071 c 0,0 -1.81782,-0.474214 -1.89686,-1.73879 -0.07904,-1.26457 0.07904,-3.39854 0.07904,-3.39854 z"
         id="path45"
         style="fill:url(#id7);stroke:#4d0808;stroke-width:0.245456;stroke-linecap:round;stroke-linejoin:round" /><path
         class="fil2"
         d="m 28.5219,32.9767 0.454525,1.14358 13.5513,0.828136 c 0.270085,-0.04014 0.514289,-0.07688 0.717583,-0.10777 l 0.320944,-1.12814 c -0.379733,0.002 -0.897501,-0.02491 -1.51427,-0.13219 -1.34096,-0.233211 -8.42475,-0.670482 -9.56166,-0.699633 -0.866054,-0.02219 -3.00044,0.05691 -3.96842,0.09601 z"
         id="path47"
         style="fill:#990000" /><path
         class="fil3 str5"
         d="m 29.2926,35.622 c 0.05267,0.711322 0.105335,1.42264 0.158071,2.13397 4.09198,-0.511645 8.23989,-0.575792 12.4876,0.158071 0.131703,-0.711322 0.263406,-1.42264 0.395179,-2.13397 -4.34697,-0.05274 -8.69393,-0.105404 -13.0409,-0.158071 z"
         id="path49"
         style="fill:#8a3911;stroke:#2b0f02;stroke-width:0.245456;stroke-linecap:round;stroke-linejoin:round" /><polygon
         class="fil4 str5"
         points="42.4915,46.845 40.5947,46.766 41.0689,36.2542 43.44,36.2542 "
         id="polygon51"
         style="fill:url(#id1);stroke:#2b0f02;stroke-width:0.245456;stroke-linecap:round;stroke-linejoin:round" /><polygon
         class="fil3"
         points="41.4405,36.2542 43.4355,36.3041 43.3083,37.7241 41.0181,37.3808 41.0689,36.2542 "
         id="polygon53"
         style="fill:#8a3911" /><polygon
         class="fil5 str5"
         points="30.6362,47.1612 30.6362,36.1752 28.1861,36.0171 28.5812,47.3983 "
         id="polygon55"
         style="fill:url(#id2);stroke:#2b0f02;stroke-width:0.245456;stroke-linecap:round;stroke-linejoin:round" /><polygon
         class="fil3"
         points="28.2346,37.4152 30.6362,37.1835 30.6362,36.1752 29.1048,36.0764 28.1951,36.2778 "
         id="polygon57"
         style="fill:#8a3911" /><polygon
           class="fil6"
           points="13.6426,44.3894 5.50001,44.2471 5.64333,43.1404 13.3865,42.9672 "
           id="polygon61"
           style="fill:#cc6633" /><path
           id="1"
           class="fil7"
           d="m 13.5069,42.9456 -0.11758,0.144087 -7.74321,0.173169 -0.00557,-0.244899 7.74321,-0.173169 0.123145,0.100812 z m -0.11758,0.144087 -0.0056,-0.244899 0.0063,0 0.0062,3.48e-4 0.0061,6.96e-4 0.0061,9.04e-4 0.0059,0.0013 0.0058,0.0015 0.0058,0.0018 0.0056,0.0021 0.0055,0.0024 0.0054,0.0026 0.0051,0.0029 0.0051,0.0031 0.0049,0.0033 0.0047,0.0035 0.0045,0.0038 0.0043,0.004 0.0042,0.0042 0.004,0.0043 0.0037,0.0046 0.0035,0.0047 0.0033,0.0049 0.0031,0.0051 0.0028,0.0052 0.0026,0.0054 0.0023,0.0055 0.0021,0.0056 0.0018,0.0058 0.0015,0.0059 0.0013,0.006 9.04e-4,0.0061 6.27e-4,0.0062 2.78e-4,0.0063 0,0.0063 -3.48e-4,0.0062 -6.26e-4,0.0061 -9.74e-4,0.0061 -0.0012,0.0059 -0.0015,0.0058 -0.0018,0.0058 -0.0021,0.0056 -0.0023,0.0055 -0.0026,0.0054 -0.0029,0.0051 -0.0031,0.0051 -0.0033,0.0049 -0.0035,0.0047 -0.0038,0.0045 -0.004,0.0043 -0.0042,0.0042 -0.0044,0.0039 -0.0045,0.0038 -0.0047,0.0035 -0.0049,0.0033 -0.0051,0.0031 -0.0052,0.0028 -0.0054,0.0026 -0.0055,0.0024 -0.0056,0.002 -0.0058,0.0017 -0.0059,0.0015 -0.006,0.0012 -0.0061,9.04e-4 -0.0062,6.26e-4 -0.0063,2.78e-4 z m 0.25137,1.42223 -0.118414,-0.100812 -0.256101,-1.42223 0.240725,-0.04328 0.256101,1.42223 -0.122311,0.144087 z m -0.118414,-0.100812 0.240725,-0.04328 9.74e-4,0.0062 6.26e-4,0.0062 3.48e-4,0.0062 0,0.0061 -3.48e-4,0.0061 -5.56e-4,0.006 -9.05e-4,0.006 -0.0012,0.0058 -0.0014,0.0058 -0.0017,0.0056 -0.002,0.0056 -0.0022,0.0054 -0.0025,0.0054 -0.0027,0.0052 -0.003,0.005 -0.0033,0.0049 -0.0035,0.0047 -0.0037,0.0045 -0.0039,0.0044 -0.0041,0.0042 -0.0043,0.004 -0.0045,0.0038 -0.0047,0.0036 -0.0049,0.0033 -0.005,0.0031 -0.0053,0.0029 -0.0054,0.0026 -0.0056,0.0024 -0.0057,0.0022 -0.0059,0.0018 -0.006,0.0016 -0.0062,0.0013 -0.0062,9.74e-4 -0.0062,6.26e-4 -0.0062,2.79e-4 -0.0061,0 -0.0061,-2.79e-4 -0.006,-6.26e-4 -0.006,-8.35e-4 -0.0058,-0.0012 -0.0058,-0.0015 -0.0056,-0.0017 -0.0056,-0.002 -0.0055,-0.0022 -0.0053,-0.0025 -0.0052,-0.0028 -0.0051,-0.003 -0.0049,-0.0032 -0.0047,-0.0035 -0.0046,-0.0037 -0.0044,-0.0039 -0.0042,-0.0041 -0.004,-0.0043 -0.0038,-0.0045 -0.0036,-0.0047 -0.0034,-0.0049 -0.0031,-0.0051 -0.0029,-0.0053 -0.0027,-0.0054 -0.0024,-0.0056 -0.0022,-0.0057 -0.0018,-0.0059 -0.0016,-0.006 -0.0013,-0.0062 z m -8.14374,-0.179918 0.123424,-0.106448 8.14263,0.142278 -0.0039,0.244899 -8.1426301,-0.142278 -0.119528,-0.138452 z m 0.123424,-0.106448 -0.0039,0.244899 -0.00633,-2.78e-4 -0.00619,-5.57e-4 -0.00612,-9.04e-4 -0.00598,-0.0012 -0.00591,-0.0015 -0.00577,-0.0017 -0.00564,-0.002 -0.00557,-0.0023 -0.00536,-0.0025 -0.00522,-0.0028 -0.00508,-0.0031 -0.00494,-0.0033 -0.00473,-0.0035 -0.00459,-0.0038 -0.00438,-0.0039 -0.00417,-0.0041 -0.00397,-0.0044 -0.00383,-0.0045 -0.00355,-0.0047 -0.00334,-0.0049 -0.00313,-0.005 -0.00285,-0.0051 -0.00257,-0.0054 -0.00237,-0.0054 -0.00216,-0.0056 -0.00181,-0.0057 -0.00153,-0.0058 -0.00132,-0.006 -9.74e-4,-0.0061 -6.958e-4,-0.0061 -3.478e-4,-0.0062 -6.96e-5,-0.0063 2.783e-4,-0.0063 5.566e-4,-0.0062 8.348e-4,-0.0061 0.00118,-0.006 0.00146,-0.0059 0.00174,-0.0058 0.00202,-0.0056 0.0023,-0.0056 0.0025,-0.0054 0.00285,-0.0052 0.00299,-0.0051 0.00327,-0.0049 0.00348,-0.0047 0.00376,-0.0045 0.0039,-0.0044 0.0041,-0.0042 0.00431,-0.004 0.00452,-0.0038 0.00466,-0.0035 0.00487,-0.0033 0.00501,-0.0031 0.00522,-0.0029 0.00529,-0.0026 0.0055,-0.0024 0.00557,-0.0021 0.00571,-0.0019 0.00584,-0.0015 0.00598,-0.0013 0.00605,-9.74e-4 0.00612,-6.96e-4 0.00619,-3.48e-4 0.00633,-6.9e-5 z m 0.138591,-1.10678 0.124259,0.138452 -0.143322,1.10678 -0.242951,-0.032 0.143322,-1.10678 0.118693,-0.106448 z m 0.124259,0.138452 -0.242951,-0.032 9.74e-4,-0.0063 0.00125,-0.0061 0.0016,-0.006 0.00181,-0.0058 0.00216,-0.0057 0.00237,-0.0056 0.00264,-0.0054 0.00292,-0.0052 0.00313,-0.0051 0.00334,-0.0049 0.00362,-0.0047 0.00376,-0.0045 0.00404,-0.0043 0.00417,-0.0041 0.00445,-0.0039 0.00452,-0.0037 0.0048,-0.0035 0.00487,-0.0032 0.00508,-0.0031 0.00522,-0.0027 0.00536,-0.0025 0.00543,-0.0023 0.00564,-0.0019 0.00564,-0.0017 0.00584,-0.0015 0.00591,-0.0012 0.00598,-8.35e-4 0.00605,-6.26e-4 0.00612,-2.78e-4 0.00612,6.9e-5 0.00626,2.79e-4 0.00626,6.95e-4 0.00626,9.74e-4 0.00605,0.0013 0.00598,0.0015 0.00584,0.0019 0.00571,0.0021 0.00557,0.0024 0.00536,0.0026 0.00522,0.0029 0.00508,0.0031 0.00487,0.0033 0.00473,0.0036 0.00452,0.0038 0.00431,0.004 0.0041,0.0042 0.0039,0.0044 0.00369,0.0046 0.00348,0.0047 0.00327,0.0049 0.00299,0.0051 0.00278,0.0052 0.0025,0.0053 0.00223,0.0055 0.00202,0.0056 0.00174,0.0057 0.00146,0.0058 0.00118,0.0059 9.045e-4,0.006 5.566e-4,0.0061 2.783e-4,0.0061 0,0.0061 -3.479e-4,0.0063 -6.262e-4,0.0063 z"
           style="fill:#2b0f02;fill-rule:nonzero" /><path
           class="fil8"
           d="m 18.3066,44.9482 c 0,0.658585 0,1.31724 0,1.97589 1.04764,0.158071 2.09535,0.316143 3.14299,0.474214 0.03166,-0.395179 0.07938,-0.987947 0.09525,-1.18554 0.01586,-0.197589 1.71437,0.869393 2.19053,0.869393 0.476232,0 6.39709,0.421547 6.38123,0.158071 -0.01586,-0.263476 -0.06352,-1.05383 -0.09525,-1.58071 -1.17468,-0.105404 -2.42492,0.04348 -3.52398,-0.316143 -1.22909,-0.402206 -2.15887,-1.26457 -3.23817,-1.89686 -1.65091,0.500583 -3.30183,1.00117 -4.95261,1.50168 z"
           id="path66"
           style="fill:#132e3b" /><path
           id="path68"
           class="fil9"
           d="m 18.3248,46.8028 -0.03646,0.242534 -0.1045,-0.121267 0,-0.06178 0,-0.06171 0,-0.06178 0,-0.06171 0,-0.06178 0,-0.06171 0,-0.06178 0,-0.06171 0,-0.06178 0,-0.06171 0,-0.06178 0,-0.06171 0,-0.06178 0,-0.06171 0,-0.06178 0,-0.06171 0,-0.06178 0,-0.06171 0,-0.06178 0,-0.06171 0,-0.06178 0,-0.06171 0,-0.06178 0,-0.06171 0,-0.06178 0,-0.06171 0,-0.06178 0,-0.06171 0,-0.06178 0,-0.06171 0,-0.06178 0,-0.06171 0.245456,0 0,0.06171 0,0.06178 0,0.06171 0,0.06178 0,0.06171 0,0.06178 0,0.06171 0,0.06178 0,0.06171 0,0.06178 0,0.06171 0,0.06178 0,0.06171 0,0.06178 0,0.06171 0,0.06178 0,0.06171 0,0.06178 0,0.06171 0,0.06178 0,0.06171 0,0.06178 0,0.06171 0,0.06178 0,0.06171 0,0.06178 0,0.06171 0,0.06178 0,0.06171 0,0.06178 0,0.06171 0,0.06178 -0.1045,-0.121267 z m -0.140956,0.121267 0.245456,0 -1.39e-4,0.0063 -4.87e-4,0.0062 -7.65e-4,0.0062 -0.0011,0.006 -0.0014,0.006 -0.0016,0.0058 -0.0019,0.0057 -0.0022,0.0056 -0.0024,0.0054 -0.0027,0.0053 -0.0029,0.0051 -0.0032,0.0049 -0.0035,0.0048 -0.0036,0.0047 -0.0038,0.0045 -0.0041,0.0042 -0.0042,0.0041 -0.0045,0.0038 -0.0047,0.0036 -0.0048,0.0035 -0.0049,0.0032 -0.0051,0.0029 -0.0053,0.0027 -0.0054,0.0024 -0.0056,0.0022 -0.0057,0.0019 -0.0058,0.0016 -0.006,0.0014 -0.006,0.0011 -0.0062,7.65e-4 -0.0062,4.87e-4 -0.0063,1.39e-4 -0.0063,-1.39e-4 -0.0062,-4.87e-4 -0.0062,-7.65e-4 -0.006,-0.0011 -0.006,-0.0014 -0.0058,-0.0016 -0.0057,-0.0019 -0.0056,-0.0022 -0.0054,-0.0024 -0.0053,-0.0027 -0.0051,-0.0029 -0.0049,-0.0032 -0.0048,-0.0035 -0.0047,-0.0036 -0.0045,-0.0038 -0.0042,-0.0041 -0.0041,-0.0042 -0.0038,-0.0045 -0.0036,-0.0047 -0.0035,-0.0048 -0.0032,-0.0049 -0.0029,-0.0051 -0.0027,-0.0053 -0.0024,-0.0054 -0.0022,-0.0056 -0.0019,-0.0057 -0.0016,-0.0058 -0.0014,-0.006 -0.0011,-0.006 -7.65e-4,-0.0062 -4.87e-4,-0.0062 -1.39e-4,-0.0063 z m 3.14348,0.464613 0.244482,0.0192 -0.140469,0.111666 -0.09824,-0.01482 -0.09817,-0.01482 -0.09824,-0.01482 -0.09824,-0.01482 -0.09824,-0.01482 -0.09817,-0.01482 -0.09824,-0.01482 -0.09824,-0.01482 -0.09817,-0.01482 -0.09824,-0.01482 -0.09824,-0.01482 -0.09824,-0.01482 -0.09817,-0.01482 -0.09824,-0.01482 -0.09824,-0.01482 -0.09824,-0.01482 -0.09817,-0.01482 -0.09824,-0.01482 -0.09824,-0.01482 -0.09817,-0.01482 -0.09824,-0.01482 -0.09824,-0.01482 -0.09824,-0.01482 -0.09817,-0.01482 -0.09824,-0.01482 -0.09824,-0.01482 -0.09817,-0.01482 -0.09824,-0.01482 -0.09824,-0.01482 -0.09824,-0.01482 -0.09817,-0.01482 -0.09824,-0.01482 0.03646,-0.242534 0.09824,0.01482 0.09817,0.01482 0.09824,0.01482 0.09824,0.01482 0.09824,0.01482 0.09817,0.01482 0.09824,0.01482 0.09824,0.01482 0.09817,0.01482 0.09824,0.01482 0.09824,0.01482 0.09824,0.01482 0.09817,0.01482 0.09824,0.01482 0.09824,0.01482 0.09817,0.01482 0.09824,0.01482 0.09824,0.01482 0.09824,0.01482 0.09817,0.01482 0.09824,0.01482 0.09824,0.01482 0.09824,0.01482 0.09817,0.01482 0.09824,0.01482 0.09824,0.01482 0.09817,0.01482 0.09824,0.01482 0.09824,0.01482 0.09824,0.01482 0.09817,0.01482 0.09824,0.01482 -0.140469,0.111666 z m 0.104013,0.130868 0.03646,-0.242534 0.0062,0.0011 0.0061,0.0014 0.006,0.0017 0.0058,0.0019 0.0056,0.0022 0.0056,0.0025 0.0054,0.0028 0.0051,0.003 0.005,0.0032 0.0048,0.0035 0.0047,0.0037 0.0045,0.0039 0.0042,0.0041 0.004,0.0043 0.0038,0.0045 0.0036,0.0047 0.0034,0.0048 0.0031,0.0049 0.0029,0.0051 0.0026,0.0053 0.0024,0.0054 0.0022,0.0056 0.0019,0.0056 0.0017,0.0057 0.0013,0.0058 10e-4,0.0059 7.66e-4,0.006 4.87e-4,0.0061 2.08e-4,0.0061 -1.39e-4,0.0062 -4.87e-4,0.0062 -7.65e-4,0.0063 -0.0011,0.0062 -0.0014,0.0061 -0.0017,0.0059 -0.0019,0.0058 -0.0022,0.0056 -0.0025,0.0055 -0.0028,0.0054 -0.003,0.0052 -0.0032,0.0049 -0.0035,0.0049 -0.0037,0.0046 -0.0039,0.0045 -0.0041,0.0042 -0.0043,0.004 -0.0045,0.0038 -0.0047,0.0036 -0.0048,0.0034 -0.005,0.0031 -0.0051,0.0029 -0.0053,0.0026 -0.0054,0.0024 -0.0055,0.0022 -0.0056,0.0019 -0.0058,0.0017 -0.0058,0.0013 -0.006,10e-4 -0.006,7.66e-4 -0.0061,4.87e-4 -0.0061,2.08e-4 -0.0062,-1.39e-4 -0.0063,-4.87e-4 -0.0063,-7.65e-4 z m -0.0088,-1.3164 0.244482,0.0192 0,0 -0.0016,0.01969 -0.0017,0.02185 -0.0019,0.02393 -0.0021,0.02602 -0.0022,0.02783 -0.0024,0.02957 -0.0025,0.03131 -0.0026,0.03284 -0.0028,0.0343 -0.0029,0.03562 -0.0029,0.0368 -0.0031,0.03799 -0.0031,0.03896 -0.0033,0.03993 -0.0033,0.04063 -0.0033,0.0414 -0.0034,0.04195 -0.0034,0.04244 -0.0034,0.04279 -0.0035,0.043 -0.0035,0.04321 -0.0035,0.04321 -0.0035,0.04314 -0.0034,0.043 -0.0034,0.04265 -0.0034,0.0423 -0.0033,0.04174 -0.0033,0.04119 -0.0033,0.04042 -0.0031,0.03959 -0.0031,0.03861 -0.003,0.03764 -0.244482,-0.0192 0.003,-0.03764 0.0031,-0.03861 0.0031,-0.03959 0.0033,-0.04042 0.0033,-0.04119 0.0033,-0.04174 0.0034,-0.0423 0.0034,-0.04265 0.0034,-0.043 0.0035,-0.04314 0.0035,-0.04321 0.0035,-0.04321 0.0035,-0.043 0.0034,-0.04279 0.0034,-0.04244 0.0034,-0.04195 0.0033,-0.0414 0.0033,-0.04063 0.0033,-0.03994 0.0031,-0.03896 0.0031,-0.03799 0.0029,-0.03681 0.0029,-0.03562 0.0028,-0.0343 0.0026,-0.03284 0.0025,-0.03131 0.0024,-0.02957 0.0022,-0.02783 0.0021,-0.02602 0.0019,-0.02393 0.0017,-0.02185 0.0016,-0.01969 0,0 z m 2.31277,0.756753 0,0.244482 0,4.87e-4 -0.06206,-0.004 -0.06484,-0.0103 -0.06804,-0.01621 -0.07166,-0.02066 -0.07535,-0.02519 -0.07925,-0.02894 -0.08237,-0.03256 -0.0853,-0.03583 -0.08822,-0.03861 -0.08961,-0.04056 -0.09142,-0.04258 -0.09281,-0.04418 -0.09351,-0.04474 -0.09337,-0.04599 -0.09253,-0.04578 -0.09177,-0.04557 -0.09086,-0.04501 -0.08801,-0.04404 -0.08606,-0.04258 -0.08217,-0.04021 -0.07917,-0.03799 -0.07472,-0.0352 -0.06923,-0.03214 -0.06415,-0.02811 -0.05761,-0.024 -0.05044,-0.01865 -0.0414,-0.01391 -0.03033,-0.008 -0.01503,-0.0024 0.01009,-0.0015 0.04522,-0.02658 0.02769,-0.06039 -0.244482,-0.0192 0.04035,-0.09017 0.07653,-0.04244 0.05893,-0.0042 0.05051,0.0072 0.05051,0.01287 0.05392,0.01767 0.0581,0.02254 0.06331,0.02595 0.06804,0.02992 0.07298,0.03312 0.07667,0.03618 0.08015,0.03896 0.08411,0.04119 0.08606,0.04258 0.08899,0.04404 0.08989,0.04501 0.09177,0.04557 0.09253,0.04578 0.09239,0.04501 0.09156,0.04474 0.09086,0.04321 0.08961,0.0416 0.08766,0.03959 0.08432,0.0368 0.08154,0.03388 0.07751,0.03061 0.07257,0.02699 0.0677,0.0224 0.06109,0.01774 0.05371,0.01231 0.04467,0.0075 0.03423,0.0021 0,4.87e-4 z m 6.25899,0.287479 0.244482,-0.01433 0,0 -0.07069,0.132538 -0.0837,0.03472 -0.0933,0.01816 -0.114588,0.01287 -0.138173,0.0087 -0.161133,0.0057 -0.182422,0.0029 -0.202112,3.48e-4 -0.219783,-0.0021 -0.235785,-0.0043 -0.24977,-0.0063 -0.26111,-0.0081 -0.27092,-0.0096 -0.278643,-0.01099 -0.284209,-0.01225 -0.287757,-0.01315 -0.288731,-0.01391 -0.288522,-0.01454 -0.285322,-0.01482 -0.280521,-0.0151 -0.274051,-0.01496 -0.264658,-0.01475 -0.253596,-0.01433 -0.240447,-0.01364 -0.22521,-0.01287 -0.207886,-0.01176 -0.188545,-0.01051 -0.166559,-0.009 -0.142974,-0.0074 -0.117301,-0.0056 -0.08815,-0.0035 -0.05691,-0.0012 0,-0.244482 0.06359,0.0012 0.09205,0.0035 0.118275,0.0056 0.143948,0.0074 0.167394,0.009 0.188545,0.01051 0.207886,0.01176 0.22521,0.01287 0.240447,0.01364 0.253596,0.01433 0.264658,0.01475 0.273216,0.01496 0.280521,0.0151 0.285322,0.01482 0.287548,0.01454 0.288731,0.01391 0.286783,0.01315 0.283235,0.01225 0.277669,0.01099 0.269946,0.0096 0.260136,0.0081 0.247822,0.0063 0.233976,0.0043 0.217835,0.0021 0.19919,-3.48e-4 0.178665,-0.0029 0.155289,-0.0057 0.129546,-0.0087 0.100256,-0.01092 0.0645,-0.01245 0.01273,-0.0031 -0.03952,0.08704 0,0 z m 0.01642,-1.46613 0.02115,-0.243508 0.111666,0.114588 0.003,0.05016 0.0031,0.05155 0.0032,0.05274 0.0032,0.05392 0.0033,0.05489 0.0033,0.05566 0.0034,0.05642 0.0034,0.05684 0.0035,0.05733 0.0035,0.05747 0.0035,0.05768 0.0034,0.05754 0.0035,0.0574 0.0035,0.05705 0.0034,0.05656 0.0033,0.05594 0.0033,0.05517 0.0033,0.0542 0.0032,0.05322 0.0031,0.05197 0.0031,0.05065 0.0029,0.04912 0.0029,0.04745 0.0028,0.04571 0.0026,0.04383 0.0025,0.04167 0.0024,0.03952 0.0022,0.03708 0.0021,0.03465 0.0019,0.03193 0.0017,0.02915 0.0016,0.02623 -0.244482,0.01433 -0.0016,-0.02623 -0.0017,-0.02915 -0.0019,-0.03193 -0.0021,-0.03465 -0.0022,-0.03708 -0.0024,-0.03952 -0.0025,-0.04167 -0.0026,-0.04383 -0.0028,-0.04571 -0.0029,-0.04745 -0.0029,-0.04912 -0.0031,-0.05065 -0.0031,-0.05197 -0.0032,-0.05322 -0.0033,-0.0542 -0.0033,-0.05517 -0.0033,-0.05594 -0.0034,-0.05656 -0.0035,-0.05705 -0.0035,-0.0574 -0.0034,-0.05754 -0.0035,-0.05768 -0.0035,-0.05747 -0.0035,-0.05733 -0.0034,-0.05684 -0.0034,-0.05642 -0.0033,-0.05566 -0.0033,-0.05489 -0.0032,-0.05392 -0.0032,-0.05274 -0.0031,-0.05155 -0.003,-0.05016 0.111666,0.114588 z m 0.132816,-0.12892 -0.244482,0.01433 -2.09e-4,-0.0063 1.4e-4,-0.0062 4.17e-4,-0.0062 6.96e-4,-0.0061 0.001,-0.006 0.0013,-0.0059 0.0016,-0.0058 0.0018,-0.0057 0.0022,-0.0056 0.0024,-0.0054 0.0026,-0.0053 0.0029,-0.0051 0.0031,-0.005 0.0033,-0.0048 0.0036,-0.0047 0.0038,-0.0045 0.004,-0.0043 0.0042,-0.0041 0.0045,-0.0039 0.0046,-0.0037 0.0047,-0.0035 0.0049,-0.0032 0.0051,-0.003 0.0052,-0.0028 0.0054,-0.0025 0.0056,-0.0023 0.0057,-0.0019 0.0058,-0.0017 0.006,-0.0014 0.0061,-0.0012 0.0062,-7.65e-4 0.0063,-5.57e-4 0.0063,-2.09e-4 0.0062,1.4e-4 0.0062,4.17e-4 0.0061,6.96e-4 0.006,10e-4 0.0059,0.0013 0.0058,0.0016 0.0057,0.0018 0.0056,0.0022 0.0054,0.0024 0.0053,0.0026 0.0051,0.0029 0.005,0.0031 0.0048,0.0033 0.0047,0.0036 0.0045,0.0038 0.0043,0.004 0.0041,0.0042 0.0039,0.0045 0.0037,0.0046 0.0035,0.0047 0.0032,0.0049 0.003,0.0051 0.0028,0.0052 0.0025,0.0054 0.0023,0.0056 0.0019,0.0057 0.0017,0.0058 0.0014,0.006 0.0012,0.0061 7.66e-4,0.0062 5.56e-4,0.0063 z m -3.68407,-0.19251 0.0757,-0.232933 0,0 0.100117,0.03131 0.101508,0.02839 0.102273,0.02623 0.1029,0.02317 0.103804,0.02122 0.104848,0.01906 0.105543,0.01684 0.10603,0.01531 0.107213,0.01294 0.107631,0.01169 0.108187,0.0097 0.108952,0.0087 0.109439,0.0074 0.110274,0.0062 0.110066,0.0052 0.111318,0.0043 0.11104,0.0036 0.111666,0.0029 0.111805,0.0025 0.112014,0.0022 0.112501,0.002 0.112501,0.0019 0.112431,0.002 0.112779,0.0023 0.112779,0.0026 0.11264,0.0031 0.112918,0.0038 0.11264,0.0046 0.112362,0.0055 0.112501,0.0066 0.112222,0.0078 0.111805,0.0097 -0.02115,0.243508 -0.108883,-0.0087 -0.1093,-0.0078 -0.109718,-0.0066 -0.110413,-0.0055 -0.110692,-0.0046 -0.11097,-0.0038 -0.111666,-0.0031 -0.111805,-0.0026 -0.111944,-0.0023 -0.112431,-0.002 -0.112501,-0.0019 -0.112501,-0.002 -0.112849,-0.0022 -0.112779,-0.0025 -0.11264,-0.0029 -0.112988,-0.0036 -0.112292,-0.0043 -0.112988,-0.0052 -0.112083,-0.0062 -0.112362,-0.0074 -0.111875,-0.0087 -0.111944,-0.01065 -0.111527,-0.01169 -0.11097,-0.01391 -0.110901,-0.01531 -0.110274,-0.01781 -0.109718,-0.0199 -0.109509,-0.02219 -0.108744,-0.02512 -0.107978,-0.0272 -0.107213,-0.03033 -0.106796,-0.03326 0,0 z m -3.16484,-1.89637 -0.07097,-0.233907 0.09733,0.01148 0.102204,0.06039 0.100951,0.06213 0.100673,0.06276 0.09956,0.06415 0.09859,0.06449 0.09859,0.06526 0.09768,0.0654 0.0974,0.0663 0.09671,0.06616 0.09705,0.06686 0.0965,0.06644 0.09608,0.06596 0.09664,0.06623 0.09643,0.06596 0.09664,0.06505 0.09699,0.0645 0.09699,0.0638 0.0974,0.0631 0.0981,0.06164 0.09879,0.06102 0.09907,0.05942 0.09991,0.05802 0.100395,0.05712 0.101786,0.05517 0.102482,0.05295 0.103178,0.05155 0.104917,0.04968 0.105752,0.04759 0.107283,0.04543 0.108118,0.04258 0.109857,0.04063 0.111457,0.03813 -0.0757,0.232933 -0.117301,-0.03993 -0.115562,-0.04258 -0.113962,-0.0455 -0.112014,-0.04738 -0.110483,-0.0494 -0.108813,-0.05162 -0.107909,-0.0535 -0.106378,-0.05587 -0.104708,-0.05698 -0.104152,-0.05809 -0.10283,-0.05997 -0.101995,-0.06136 -0.100604,-0.06199 -0.100047,-0.06359 -0.09935,-0.06394 -0.09893,-0.06477 -0.09796,-0.06547 -0.09761,-0.06603 -0.09726,-0.06596 -0.09664,-0.06623 -0.09706,-0.06693 -0.0965,-0.06644 -0.09608,-0.06589 -0.09671,-0.06616 -0.09657,-0.06533 -0.09671,-0.0654 -0.09664,-0.06429 -0.09761,-0.06352 -0.09761,-0.06234 -0.09789,-0.06178 -0.099,-0.06018 -0.09928,-0.05942 0.09733,0.01148 z m 0.02637,-0.222427 -0.123702,0.210948 -0.0054,-0.0033 -0.0051,-0.0035 -0.0049,-0.0038 -0.0046,-0.004 -0.0045,-0.0042 -0.0042,-0.0043 -0.0039,-0.0045 -0.0037,-0.0047 -0.0034,-0.0049 -0.0032,-0.0049 -0.0029,-0.0051 -0.0026,-0.0053 -0.0024,-0.0054 -0.0022,-0.0054 -0.0019,-0.0056 -0.0016,-0.0056 -0.0013,-0.0057 -0.0011,-0.0058 -7.65e-4,-0.0058 -5.57e-4,-0.0058 -2.08e-4,-0.0059 6.9e-5,-0.0059 3.48e-4,-0.0059 6.26e-4,-0.0059 9.05e-4,-0.0059 0.0012,-0.0058 0.0015,-0.0058 0.0018,-0.0058 0.0021,-0.0058 0.0024,-0.0056 0.0027,-0.0056 0.0031,-0.0055 0.0033,-0.0054 0.0035,-0.0051 0.0038,-0.0049 0.004,-0.0046 0.0042,-0.0045 0.0043,-0.0042 0.0045,-0.0039 0.0047,-0.0037 0.0049,-0.0034 0.0049,-0.0032 0.0051,-0.0029 0.0053,-0.0026 0.0054,-0.0024 0.0054,-0.0022 0.0056,-0.0019 0.0056,-0.0016 0.0057,-0.0013 0.0058,-0.0011 0.0058,-7.65e-4 0.0058,-5.57e-4 0.0059,-2.09e-4 0.0059,7e-5 0.0059,3.48e-4 0.0059,6.26e-4 0.0059,9.04e-4 0.0058,0.0012 0.0058,0.0015 0.0058,0.0018 0.0058,0.0021 0.0056,0.0024 0.0056,0.0027 0.0055,0.0031 z m -4.89173,1.60715 -0.245456,0 0.08724,-0.116953 0.154732,-0.04689 0.154802,-0.04696 0.154732,-0.04689 0.154802,-0.04696 0.154732,-0.04689 0.154802,-0.04696 0.154732,-0.04689 0.154802,-0.04696 0.154732,-0.04689 0.154802,-0.04696 0.154732,-0.04689 0.154802,-0.04696 0.154732,-0.04689 0.154802,-0.04696 0.154732,-0.04689 0.154802,-0.04696 0.154732,-0.04689 0.154802,-0.04696 0.154732,-0.04689 0.154802,-0.04696 0.154802,-0.04689 0.154732,-0.04696 0.154802,-0.04689 0.154732,-0.04696 0.154802,-0.04689 0.154732,-0.04696 0.154802,-0.04689 0.154802,-0.04696 0.154732,-0.04689 0.154802,-0.04696 0.154732,-0.04689 0.154802,-0.04696 0.07097,0.233907 -0.154802,0.04696 -0.154732,0.04689 -0.154802,0.04696 -0.154732,0.04689 -0.154802,0.04696 -0.154802,0.04689 -0.154732,0.04696 -0.154802,0.04689 -0.154732,0.04696 -0.154802,0.04689 -0.154732,0.04696 -0.154802,0.04689 -0.154802,0.04696 -0.154732,0.04689 -0.154802,0.04696 -0.154732,0.04689 -0.154802,0.04696 -0.154732,0.04689 -0.154802,0.04696 -0.154732,0.04689 -0.154802,0.04696 -0.154732,0.04689 -0.154802,0.04696 -0.154732,0.04689 -0.154802,0.04696 -0.154732,0.04689 -0.154802,0.04696 -0.154732,0.04689 -0.154802,0.04696 -0.154732,0.04689 -0.154802,0.04696 -0.154732,0.04689 0.08725,-0.116953 z m -0.158211,-0.116953 0.07097,0.233907 -0.0061,0.0017 -0.0061,0.0013 -0.0061,0.001 -0.0061,6.96e-4 -0.0061,4.17e-4 -0.0061,1.4e-4 -0.006,-2.09e-4 -0.0059,-4.87e-4 -0.0059,-7.65e-4 -0.0058,-10e-4 -0.0058,-0.0013 -0.0056,-0.0016 -0.0056,-0.0019 -0.0055,-0.0022 -0.0054,-0.0024 -0.0053,-0.0026 -0.0051,-0.0029 -0.0049,-0.0031 -0.0049,-0.0033 -0.0047,-0.0036 -0.0045,-0.0038 -0.0043,-0.004 -0.0041,-0.0042 -0.0039,-0.0045 -0.0038,-0.0047 -0.0035,-0.0049 -0.0033,-0.0051 -0.003,-0.0053 -0.0028,-0.0054 -0.0025,-0.0056 -0.0023,-0.0058 -0.0019,-0.006 -0.0017,-0.0061 -0.0013,-0.0061 -0.001,-0.0061 -6.96e-4,-0.0061 -4.17e-4,-0.0061 -1.39e-4,-0.0061 2.08e-4,-0.006 4.87e-4,-0.0059 7.66e-4,-0.0059 10e-4,-0.0058 0.0014,-0.0057 0.0016,-0.0057 0.0019,-0.0056 0.0021,-0.0055 0.0024,-0.0054 0.0026,-0.0052 0.0029,-0.0051 0.0031,-0.0049 0.0034,-0.0048 0.0035,-0.0047 0.0038,-0.0045 0.004,-0.0043 0.0043,-0.0041 0.0045,-0.004 0.0047,-0.0037 0.0049,-0.0035 0.0051,-0.0033 0.0053,-0.003 0.0054,-0.0028 0.0056,-0.0025 0.0058,-0.0023 0.006,-0.0019 z"
           style="fill:#000000;fill-rule:nonzero" /><path
         class="fil10 str6"
         d="m 2.18329,33.1718 c 0,0 0.474214,4.50504 1.89686,5.05829 1.42264,0.55325 4.91017,1.18206 6.87973,0.02066 1.96956,-1.16139 9.99733,-6.40336 11.0836,-6.22573 1.08625,0.177622 -0.261736,0.561669 0.133442,0.71974 0.395179,0.158071 0.704503,0.285391 0.704503,0.285391 l -0.521803,0.970762 -4.21109,9.3665 3.87275,-0.395179 c 0,0 5.34194,-9.865 5.65801,-11.4457 0.316073,-1.58071 -0.711322,-4.82118 -1.89686,-5.05829 -1.18554,-0.237107 -9.16502,2.58905 -9.16502,2.58905 l -4.39657,0.715983 -4.34697,-0.316143 -5.69057,3.71468 z"
         id="path70"
         style="fill:#333333;stroke:#000000;stroke-width:0.245456;stroke-linecap:round;stroke-linejoin:round" /><path
         class="fil11"
         d="m 2.18329,33.1718 c 0,0 0.474214,4.50504 1.89686,5.05829 1.42264,0.55325 4.91017,1.18206 6.87973,0.02066 1.96956,-1.16139 9.99733,-6.40336 11.0836,-6.22573 1.08625,0.177622 -0.261736,0.561669 0.133442,0.71974 0.395179,0.158071 0.704503,0.285391 0.704503,0.285391 l -0.299445,0.557077 1.5803,-0.112849 -0.817213,-0.466979 1.0507,-0.466979 -1.28419,-0.817213 -1.16745,-0.116745 -3.50234,1.40094 -4.08606,1.98466 -3.3856,2.21815 c 0,0 -3.03536,1.0507 -3.73583,1.0507 -0.700468,0 -2.33489,-0.700468 -3.15211,-1.0507 -0.817213,-0.350234 -0.350234,-2.33489 -0.350234,-2.33489 l 1.40094,-0.583724 3.61909,-1.98466 c 0,0 0.933958,0 2.1014,0.116745 1.16745,0.116745 2.33489,-1.16745 2.33489,-1.16745 l 2.45164,-1.16745 c 0,0 -0.36881,-0.284139 -0.95963,-0.716053 l -2.45943,0.400536 -4.34697,-0.316143 -5.69057,3.71468 z m 20.3577,0.491677 -0.181379,0.337433 -0.582819,1.29637 0.984538,-0.421965 -0.22034,-1.21184 z"
         id="path72"
         style="fill:#191919" /><path
         class="fil11"
         d="m 3.84868,37.794 1.14115,-1.86792 0.335693,0 -0.872663,2.1014 0.939802,0.116745 0.335624,-1.6928 0.402762,0.116745 -0.268485,1.86792 1.00687,-0.116745 0.469901,-1.63443 0.067139,1.51768 0.738386,-0.05837 0.469901,-1.57605 0.201416,1.34256 1.07408,-0.05837 0.067069,-0.817213 0.604178,0.700468 c 0,0 -0.805525,1.16745 -1.14115,1.10907 -0.335693,-0.05837 -3.75921,0.233489 -4.09483,0.175117 -0.335693,-0.05837 -1.47684,-1.22582 -1.47684,-1.22582 z"
         id="path74"
         style="fill:#191919" /><path
         class="fil12"
         d="m 26.7924,27.3968 c -0.299237,-0.501627 -0.647036,-0.855965 -1.00993,-0.928531 -1.18554,-0.237107 -9.16502,2.58905 -9.16502,2.58905 l -1.22241,0.19905 -0.222079,0.715705 c 0,0 3.88291,-0.948846 5.4001,-1.57598 1.51719,-0.627138 4.76719,-1.49716 5.0489,-1.40066 l 1.17044,0.401371 z"
         id="path76"
         style="fill:#666666" /><path
         class="fil13 str7"
         d="m 15.9747,11.7764 c 0,0 -2.37128,-1.10386 -4.50511,-0.866541 -2.13383,0.237316 -4.93793,0.214705 -7.50666,3.34044 -2.56873,3.12574 -3.16331,6.50779 -3.598,8.48612 -0.434697,1.97833 -0.19752,8.03208 0.0395179,8.86293 0.237038,0.830849 0.276625,3.64017 0.276625,3.64017 0,0 1.45493,-0.459952 2.16806,-0.714174 0.713131,-0.254222 6.62836,-2.97852 7.4204501,-3.4137 -0.9590741,-2.41984 -0.5782971,-4.41856 -0.5782971,-4.41856 l 0.12892,-1.61362 1.8451001,-0.67243 c 0.115284,-0.04202 1.02976,-0.550467 1.01703,-0.914686 -0.06596,-1.88907 -0.761832,-4.18242 0.605083,-5.97875 0.632286,-0.830919 1.85741,-2.09709 2.78608,-2.53227 0.92867,-0.435184 -0.0988,-3.20491 -0.0988,-3.20491 z"
         id="path78"
         style="fill:#99cc66;stroke:#1f3b08;stroke-width:0.245456;stroke-linecap:round;stroke-linejoin:round" /><path
         class="fil14"
         d="m 11.8323,10.8824 c -0.121337,0.0053 -0.242464,0.01412 -0.362757,0.02748 -2.13383,0.237316 -4.93793,0.214705 -7.50666,3.34044 -1.38946,1.69078 -2.20096,3.45628 -2.72235,5.03428 l 1.7909,-2.38791 c 2.1014,-2.80187 1.63443,-3.3856 5.02002,-4.55304 3.3856,-1.16745 3.96932,-0.933958 3.96932,-0.933958 0,0 -0.07027,-0.202181 -0.188475,-0.527299 z"
         id="path80"
         style="fill:#bcffa1" /><path
         class="fil15"
         d="m 9.74032,26.0787 0.079871,-0.999287 1.8451,-0.67243 c 0.115284,-0.04202 1.02976,-0.550467 1.01703,-0.914686 -0.0013,-0.03632 -0.0029,-0.07298 -0.0045,-0.109579 -0.222636,0.21373 -0.577392,0.436645 -1.12396,0.518603 -1.16745,0.175117 -2.9186193,0.875585 -2.9186193,0.875585 0,0 0.472753,0.815961 1.10511,1.30179 z m 3.2669,-8.14173 c 0.0821,-0.143878 0.174839,-0.285044 0.280173,-0.423426 0.632286,-0.830919 1.85741,-2.09709 2.78608,-2.53227 0.189101,-0.08864 0.296871,-0.27412 0.348982,-0.513245 -0.562573,0.20406 -2.96224,1.7216 -3.2342,2.42861 -0.08933,0.232237 -0.145618,0.617397 -0.181031,1.04034 z"
         id="path82"
         style="fill:#4b8534" /><path
         class="fil16 str8"
         d="m 22.3026,23.2398 c 1.39732,-0.807681 2.41017,-1.43489 3.7398,-2.35152 0.04668,-0.03214 0.720227,-0.210808 0.950029,-0.106796 0.261388,0.118275 3.24214,1.67408 3.24214,1.67408 0.799541,-0.290957 1.56499,-0.55499 2.36453,-0.845877 0,0 0.299863,-0.1811 0.862714,0.238916 0.562851,0.420017 1.33498,1.37283 1.33498,1.37283 0,0 -0.213243,0.312177 -0.338615,0.377785 -0.125302,0.06561 -1.28544,-1.08507 -1.28544,-1.08507 -0.567095,0.103874 -1.17552,0.295758 -1.74254,0.399631 0.119806,-0.141026 1.4271,1.96789 1.57779,2.52434 -0.07959,0.09323 -0.18444,0.114936 -0.500931,0.312038 -0.560277,-0.599378 -0.890961,-2.08032 -1.7383,-1.71659 0.927626,1.10407 1.1081,1.93359 1.13579,2.6653 -0.133929,0.120293 -0.275373,0.252135 -0.484651,0.199329 -0.297219,-1.04263 -0.699007,-1.84356 -1.44929,-2.26282 -0.03917,0.03451 -0.07834,0.06909 -0.11744,0.103665 0.428435,0.916842 0.599865,1.811 0.756823,2.70391 -0.157306,0.222775 -0.371732,0.257144 -0.61211,0.205799 -0.209904,-0.940637 -0.517072,-1.87529 -1.09272,-2.79332 -0.645088,-0.555894 -1.22742,-1.21726 -2.5585,-1.43795 -1.0914,0.543232 -2.18267,1.08639 -3.274,1.62963 -0.256657,-0.602439 -0.513384,-1.20488 -0.770042,-1.80732 z"
         id="path84"
         style="fill:#fad7a3;stroke:#543714;stroke-width:0.245665;stroke-linecap:round;stroke-linejoin:round" /><path
         class="fil13 str7"
         d="m 10.8768,17.1574 c -0.838572,4.28052 -0.57294,7.88082 -0.03952,11.3161 0.408328,-0.593603 0.763989,-0.765033 1.06698,-0.514359 0,0 -0.118554,0.870506 0.158071,0.751814 0.276625,-0.118693 0.55325,-0.633051 0.55325,-0.633051 0.223888,-0.06596 0.447846,-0.131912 0.671804,-0.197868 0,0 4.46552,-1.50349 5.69064,-2.21571 1.22512,-0.712226 4.66318,-3.95673 4.66318,-3.95673 0.421547,0.98913 0.843094,1.97833 1.26464,2.96753 0,0 -9.60298,6.13285 -9.91913,6.25155 -0.316143,0.118693 -4.49766,1.46522 -6.0858899,0.15828 -1.9928,-1.63985 -2.99515,-6.02926 -2.13397,-8.42774 0,0 -0.018854,-3.27616 0.652949,-3.98838 0.671804,-0.712226 3.4569799,-1.51142 3.4569799,-1.51142 z"
         id="path86"
         style="fill:#99cc66;stroke:#1f3b08;stroke-width:0.245456;stroke-linecap:round;stroke-linejoin:round" /><path
           class="fil17"
           d="m 3.31234,40.2205 c 0.530221,2.77272 0.212269,5.20989 -0.055798,7.66675 0.922061,-0.0018 1.84405,-0.0036 2.76618,-0.0054 0.166072,-2.52956 0.283374,-5.05898 0.293949,-7.5882 -1.00151,-0.02442 -2.00296,-0.04884 -3.00433,-0.07319 z"
           id="path90"
           style="fill:url(#linearGradient3510)" /><path
           id="path92"
           class="fil7"
           d="m 3.25647,47.7648 1.391e-4,0.244899 -0.121893,-0.136086 0.025255,-0.230289 0.025394,-0.230219 0.025325,-0.230289 0.025116,-0.230289 0.024768,-0.229802 0.024281,-0.230637 0.023516,-0.230359 0.022333,-0.230915 0.021707,-0.231054 0.020455,-0.231472 0.019133,-0.232028 0.017602,-0.232655 0.015932,-0.232585 0.013845,-0.233698 0.012384,-0.234463 0.0096,-0.235298 0.00751,-0.235994 0.00508,-0.236899 0.00243,-0.238012 -4.87e-4,-0.239055 -0.00341,-0.239612 -0.00661,-0.24156 -0.0096,-0.242464 -0.013706,-0.243925 -0.016767,-0.245247 -0.020872,-0.246569 -0.02449,-0.248448 -0.029012,-0.2497 -0.03263,-0.25137 -0.037848,-0.253248 -0.042092,-0.255405 -0.046893,-0.256588 0.240725,-0.04592 0.047588,0.261319 0.042788,0.258745 0.037848,0.257284 0.034021,0.255544 0.029012,0.253735 0.025186,0.251787 0.020872,0.250605 0.017463,0.248726 0.01301,0.247265 0.010297,0.245943 0.00661,0.244204 0.00341,0.243647 4.87e-4,0.241838 -0.00244,0.240655 -0.00508,0.239681 -0.00751,0.238638 -0.010297,0.237386 -0.011688,0.236551 -0.014402,0.235646 -0.015932,0.235368 -0.017602,0.233907 -0.019133,0.23342 -0.020455,0.232863 -0.021707,0.232446 -0.023029,0.231611 -0.023516,0.231611 -0.024281,0.230637 -0.024768,0.231193 -0.025116,0.230289 -0.025325,0.230289 -0.025394,0.230219 -0.025255,0.230289 -0.121893,-0.136086 z m -0.121754,0.108813 0.243647,0.02727 -8.349e-4,0.0063 -0.00118,0.0061 -0.00146,0.006 -0.00174,0.0059 -0.00202,0.0057 -0.00223,0.0056 -0.00257,0.0054 -0.00278,0.0053 -0.00306,0.0051 -0.00327,0.0049 -0.00348,0.0048 -0.00369,0.0045 -0.00397,0.0045 -0.0041,0.0042 -0.00431,0.004 -0.00452,0.0038 -0.00466,0.0035 -0.00487,0.0033 -0.00501,0.0031 -0.00515,0.0029 -0.00529,0.0026 -0.00543,0.0024 -0.00557,0.0021 -0.00564,0.0019 -0.00577,0.0015 -0.00591,0.0013 -0.00591,0.001 -0.00605,6.95e-4 -0.00612,4.18e-4 -0.00619,6.9e-5 -0.00626,-2.08e-4 -0.00626,-5.57e-4 -0.00626,-8.35e-4 -0.00612,-0.0012 -0.00598,-0.0015 -0.00591,-0.0017 -0.00571,-0.002 -0.00564,-0.0023 -0.00543,-0.0026 -0.00529,-0.0028 -0.00515,-0.0031 -0.00494,-0.0033 -0.0048,-0.0035 -0.00459,-0.0038 -0.00438,-0.0039 -0.00417,-0.0041 -0.00404,-0.0044 -0.00376,-0.0045 -0.00355,-0.0047 -0.00334,-0.0048 -0.00313,-0.005 -0.00285,-0.0051 -0.00264,-0.0054 -0.00237,-0.0054 -0.00209,-0.0056 -0.00188,-0.0056 -0.00153,-0.0058 -0.00132,-0.0058 -9.741e-4,-0.006 -6.957e-4,-0.0061 -4.174e-4,-0.0061 -1.392e-4,-0.0062 2.087e-4,-0.0063 5.566e-4,-0.0063 z m 2.76556,7e-5 0.244899,0.01642 -0.12238,0.11424 -0.086132,4.87e-4 -0.086411,2.09e-4 -0.086828,-2.09e-4 -0.086063,4.87e-4 -0.08648,2.09e-4 -0.086411,1.39e-4 -0.08648,2.09e-4 -0.086758,-2.09e-4 -0.086132,4.87e-4 -0.086411,2.09e-4 -0.086828,-2.09e-4 -0.086063,4.87e-4 -0.08648,2.09e-4 -0.086758,-2.09e-4 -0.086063,5.56e-4 -0.08648,1.4e-4 -0.086411,2.08e-4 -0.086828,-2.08e-4 -0.086063,4.87e-4 -0.08648,2.08e-4 -0.086411,1.4e-4 -0.08648,2.08e-4 -0.086758,-2.08e-4 -0.086063,5.56e-4 -0.086828,-2.09e-4 -0.086063,4.87e-4 -0.08648,2.09e-4 -0.086411,1.39e-4 -0.08648,2.09e-4 -0.086411,1.39e-4 -0.08648,2.09e-4 -0.086758,-2.09e-4 -1.391e-4,-0.244899 0.086063,-4.87e-4 0.08648,-2.09e-4 0.086411,-1.39e-4 0.08648,-2.08e-4 0.086411,-1.4e-4 0.08648,-2.08e-4 0.086758,2.08e-4 0.086132,-4.87e-4 0.086758,1.4e-4 0.086063,-4.87e-4 0.08648,-2.09e-4 0.086411,-1.39e-4 0.08648,-2.09e-4 0.086758,2.09e-4 0.086132,-4.87e-4 0.086411,-2.09e-4 0.08648,-1.39e-4 0.086758,1.39e-4 0.086063,-4.87e-4 0.08648,-2.09e-4 0.086758,2.09e-4 0.086132,-4.87e-4 0.086411,-2.09e-4 0.086828,2.09e-4 0.086063,-4.87e-4 0.08648,-2.09e-4 0.086411,-1.39e-4 0.08648,-2.09e-4 0.086758,2.09e-4 0.086132,-4.87e-4 0.086411,-2.09e-4 0.086828,2.09e-4 -0.12238,0.11424 z m 0.122519,0.130659 -1.391e-4,-0.244899 0.00633,1.39e-4 0.00619,4.87e-4 0.00612,7.65e-4 0.00605,0.0011 0.00591,0.0013 0.00577,0.0017 0.00571,0.0019 0.00557,0.0022 0.00543,0.0025 0.00529,0.0027 0.00515,0.0029 0.00494,0.0032 0.0048,0.0034 0.00466,0.0036 0.00445,0.0039 0.00424,0.004 0.00404,0.0042 0.0039,0.0045 0.00362,0.0047 0.00341,0.0048 0.0032,0.0049 0.00292,0.0051 0.00271,0.0053 0.0025,0.0054 0.00216,0.0056 0.00195,0.0057 0.00167,0.0058 0.00132,0.0059 0.00111,0.0061 7.653e-4,0.0061 4.871e-4,0.0062 1.391e-4,0.0063 -1.391e-4,0.0063 -4.871e-4,0.0062 -7.653e-4,0.0061 -0.00111,0.0061 -0.00132,0.0059 -0.00167,0.0058 -0.00195,0.0057 -0.00216,0.0056 -0.00244,0.0054 -0.00271,0.0053 -0.00299,0.0051 -0.00313,0.005 -0.00341,0.0048 -0.00362,0.0046 -0.0039,0.0045 -0.00404,0.0042 -0.00424,0.004 -0.00445,0.0039 -0.00459,0.0036 -0.0048,0.0034 -0.00501,0.0031 -0.00508,0.003 -0.00529,0.0027 -0.00543,0.0024 -0.00557,0.0022 -0.0057,0.0019 -0.00577,0.0017 -0.00591,0.0013 -0.00605,0.0011 -0.00612,7.65e-4 -0.00619,4.87e-4 -0.00633,1.39e-4 z m 0.291236,-7.5882 0.00529,-0.244899 0.119806,0.123215 -0.00132,0.237107 -0.00188,0.237803 -0.00257,0.237107 -0.00306,0.237803 -0.00369,0.237107 -0.00431,0.237803 -0.0048,0.237107 -0.00577,0.237455 -0.00557,0.237525 -0.0064,0.237107 -0.00703,0.237803 -0.00744,0.237107 -0.00835,0.237455 -0.00814,0.237455 -0.00891,0.237107 -0.00974,0.237525 -0.00953,0.237455 L 6.33032,44.567396 6.319188,44.804921 6.308404,45.042376 6.296785,45.279553 6.28454,45.517008 6.272156,45.754115 6.259702,45.99164 6.246274,46.229026 6.232777,46.466203 6.218932,46.70331 6.205087,46.940835 6.190268,47.17829 6.175449,47.415467 6.160352,47.652574 6.145185,47.890099 5.900286,47.873679 5.91601,47.63685 l 0.015097,-0.237107 0.014819,-0.237177 0.014263,-0.236759 0.014402,-0.236829 0.013845,-0.237107 0.013497,-0.237177 0.012871,-0.236829 0.01301,-0.236829 0.012384,-0.237107 0.011688,-0.236759 0.011619,-0.237177 0.01148,-0.236759 0.010436,-0.236829 0.010297,-0.237107 0.010227,-0.236759 0.00904,-0.236829 0.00891,-0.237107 0.00884,-0.236759 0.00765,-0.236899 0.00744,-0.237107 0.00703,-0.236412 0.0064,-0.237107 0.00626,-0.236829 0.00508,-0.236759 0.0048,-0.237107 0.00431,-0.236412 0.00369,-0.237107 0.00306,-0.236551 0.00257,-0.237107 0.00188,-0.236412 0.00132,-0.237107 0.119806,0.123215 z m 0.125094,-0.121684 -0.244899,-0.0015 2.087e-4,-0.0063 4.87e-4,-0.0062 7.653e-4,-0.0061 0.00111,-0.006 0.00139,-0.0059 0.00167,-0.0058 0.00195,-0.0056 0.00223,-0.0056 0.0025,-0.0054 0.00271,-0.0053 0.00299,-0.0051 0.0032,-0.0049 0.00341,-0.0048 0.00369,-0.0046 0.00383,-0.0044 0.0041,-0.0042 0.00424,-0.004 0.00452,-0.0038 0.00459,-0.0036 0.0048,-0.0034 0.00501,-0.0031 0.00515,-0.0029 0.00529,-0.0026 0.00543,-0.0024 0.00557,-0.0022 0.00571,-0.0019 0.00584,-0.0016 0.00591,-0.0013 0.00605,-10e-4 0.00612,-7.65e-4 0.00619,-4.17e-4 0.00633,-1.39e-4 0.00633,2.08e-4 0.00619,4.87e-4 0.00612,8.35e-4 0.00605,0.0011 0.00591,0.0014 0.00577,0.0017 0.00571,0.002 0.0055,0.0022 0.00543,0.0024 0.00529,0.0028 0.00508,0.0029 0.00501,0.0033 0.00473,0.0034 0.00466,0.0037 0.00438,0.0039 0.00424,0.004 0.00404,0.0043 0.00383,0.0045 0.00362,0.0047 0.00341,0.0048 0.00313,0.005 0.00292,0.0051 0.00271,0.0053 0.00244,0.0054 0.00216,0.0056 0.00188,0.0057 0.0016,0.0058 0.00139,0.0059 0.00104,0.0061 7.653e-4,0.0061 4.175e-4,0.0062 1.391e-4,0.0063 z m -3.00642,-0.09692 -0.240725,0.04592 0.123006,-0.145409 0.093855,0.0023 0.093924,0.0023 0.093855,0.0022 0.093855,0.0023 0.093924,0.0023 0.093855,0.0023 0.093924,0.0023 0.093855,0.0023 0.093855,0.0023 0.093924,0.0022 0.093855,0.0023 0.093924,0.0023 0.093855,0.0023 0.093855,0.0023 0.093924,0.0023 0.093855,0.0023 0.093924,0.0023 0.093855,0.0022 0.093924,0.0023 0.093855,0.0023 0.093924,0.0023 0.093855,0.0023 0.093855,0.0023 0.093924,0.0023 0.093855,0.0023 0.093924,0.0023 0.093855,0.0022 0.093924,0.0023 0.093855,0.0023 0.093924,0.0023 0.093855,0.0023 0.093925,0.0023 -0.00529,0.244899 -0.093924,-0.0023 -0.093855,-0.0023 -0.093924,-0.0023 -0.093855,-0.0023 -0.093924,-0.0023 -0.093855,-0.0022 -0.093924,-0.0023 -0.093855,-0.0023 -0.093924,-0.0023 -0.093855,-0.0023 -0.093855,-0.0023 -0.093924,-0.0023 -0.093855,-0.0023 -0.093924,-0.0023 -0.093855,-0.0022 -0.093924,-0.0023 -0.093855,-0.0023 -0.093924,-0.0023 -0.093855,-0.0023 -0.093855,-0.0023 -0.093924,-0.0023 -0.093855,-0.0023 -0.093924,-0.0022 -0.093855,-0.0023 -0.093855,-0.0023 -0.093924,-0.0023 -0.093855,-0.0023 -0.093924,-0.0023 -0.093855,-0.0023 -0.093855,-0.0022 -0.093924,-0.0023 -0.093855,-0.0023 0.123006,-0.145409 z m -0.117719,-0.09949 -0.00529,0.244899 -0.00633,-2.78e-4 -0.00619,-6.26e-4 -0.00612,-9.05e-4 -0.00598,-0.0013 -0.00591,-0.0015 -0.00577,-0.0018 -0.00564,-0.0021 -0.0055,-0.0023 -0.00536,-0.0026 -0.00522,-0.0028 -0.00508,-0.0031 -0.00487,-0.0033 -0.00473,-0.0035 -0.00459,-0.0037 -0.00431,-0.004 -0.00417,-0.0042 -0.00397,-0.0043 -0.00376,-0.0045 -0.00355,-0.0047 -0.00327,-0.0049 -0.00306,-0.0051 -0.00285,-0.0051 -0.00257,-0.0054 -0.00237,-0.0055 -0.00209,-0.0056 -0.00181,-0.0058 -0.00153,-0.0058 -0.00125,-0.0059 -9.044e-4,-0.0061 -6.958e-4,-0.0061 -3.478e-4,-0.0062 0,-0.0063 2.783e-4,-0.0063 6.261e-4,-0.0062 9.045e-4,-0.0061 0.00118,-0.006 0.00153,-0.0059 0.00174,-0.0058 0.00202,-0.0056 0.00237,-0.0055 0.00257,-0.0054 0.00278,-0.0052 0.00306,-0.0051 0.00327,-0.0049 0.00355,-0.0047 0.00376,-0.0045 0.0039,-0.0044 0.00417,-0.0042 0.00431,-0.004 0.00452,-0.0038 0.00473,-0.0035 0.00487,-0.0033 0.00508,-0.0031 0.00515,-0.0029 0.00536,-0.0026 0.0055,-0.0023 0.00557,-0.0021 0.00577,-0.0018 0.00584,-0.0015 0.00591,-0.0012 0.00612,-9.74e-4 0.00612,-6.27e-4 0.00619,-3.48e-4 0.00633,0 z"
           style="fill:#2b0f02;fill-rule:nonzero" /><path
         class="fil18"
         d="m 3.31234,40.2205 c 0.085297,0.446107 0.148331,0.883308 0.193485,1.31355 0.693024,-0.123145 1.86569,-0.304455 2.80222,-0.312873 0.00438,-0.309186 0.00731,-0.618302 0.00863,-0.927487 -1.00151,-0.02442 -2.00296,-0.04884 -3.00433,-0.07319 z"
         id="path94"
         style="fill:#823e1d" /><path
           class="fil19"
           d="m 12.241,40.045 c -0.104152,2.5137 0.474145,5.4232 0.852765,7.77452 0.86835,-0.0807 1.73663,-0.161411 2.60498,-0.242186 -0.556242,-2.33288 -0.993026,-5.20098 -0.768442,-7.37948 -0.896457,-0.051 -1.79291,-0.101926 -2.6893,-0.152853 z"
           id="path98"
           style="fill:url(#id3)" /><path
           id="path100"
           class="fil7"
           d="m 13.0822,47.6978 0.02324,0.243508 -0.132329,-0.102482 -0.03639,-0.221662 -0.03673,-0.224793 -0.03792,-0.228063 -0.03861,-0.230846 -0.0391,-0.23335 -0.03945,-0.235785 -0.03973,-0.238012 -0.03973,-0.240029 -0.03994,-0.242256 -0.03896,-0.243995 -0.03917,-0.245456 -0.03827,-0.247195 -0.03785,-0.24803 -0.03625,-0.249004 -0.03548,-0.250118 -0.03458,-0.251161 -0.03277,-0.2513 -0.03124,-0.251579 -0.02985,-0.252066 -0.02762,-0.251718 -0.02588,-0.251718 -0.02331,-0.251787 -0.02087,-0.250465 -0.01844,-0.250396 -0.016,-0.249909 -0.0128,-0.248309 -0.0098,-0.247195 -0.0065,-0.245595 -0.0033,-0.24476 2.78e-4,-0.242951 0.004,-0.241003 0.0081,-0.238429 0.244204,0.0103 -0.0074,0.23509 -0.004,0.236968 -2.78e-4,0.238777 0.0033,0.240725 0.0065,0.242951 0.0098,0.244412 0.0128,0.245665 0.01531,0.24643 0.01844,0.247752 0.02087,0.249074 0.02331,0.249004 0.02519,0.24977 0.02762,0.250326 0.02915,0.249978 0.03124,0.250326 0.03277,0.249909 0.03388,0.249074 0.03548,0.248865 0.03694,0.248309 0.03715,0.247335 0.03827,0.245804 0.03847,0.24476 0.03966,0.243299 0.03924,0.24156 0.03973,0.240029 0.03973,0.238012 0.03945,0.235785 0.0391,0.23335 0.03861,0.230846 0.03792,0.228063 0.03743,0.225488 0.03569,0.222358 -0.132329,-0.102482 z m -0.109092,0.141026 0.241421,-0.03854 8.35e-4,0.0063 5.56e-4,0.0062 1.4e-4,0.0061 -7e-5,0.0061 -4.17e-4,0.0061 -6.96e-4,0.006 -9.74e-4,0.0059 -0.0013,0.0058 -0.0015,0.0058 -0.0018,0.0056 -0.0022,0.0055 -0.0023,0.0054 -0.0026,0.0052 -0.0029,0.0051 -0.0031,0.005 -0.0033,0.0048 -0.0035,0.0047 -0.0038,0.0045 -0.004,0.0043 -0.0042,0.0041 -0.0044,0.004 -0.0046,0.0037 -0.0047,0.0035 -0.005,0.0033 -0.0051,0.0031 -0.0054,0.0028 -0.0054,0.0025 -0.0056,0.0023 -0.0058,0.002 -0.0059,0.0017 -0.0061,0.0015 -0.0062,0.0011 -0.0063,8.34e-4 -0.0062,4.87e-4 -0.0061,2.09e-4 -0.0061,-1.39e-4 -0.0061,-4.17e-4 -0.006,-6.96e-4 -0.0059,-9.74e-4 -0.0058,-0.0013 -0.0058,-0.0015 -0.0056,-0.0019 -0.0055,-0.0021 -0.0054,-0.0024 -0.0052,-0.0026 -0.0051,-0.0029 -0.005,-0.0031 -0.0049,-0.0033 -0.0047,-0.0035 -0.0045,-0.0038 -0.0043,-0.004 -0.0042,-0.0042 -0.0039,-0.0044 -0.0038,-0.0046 -0.0035,-0.0047 -0.0033,-0.005 -0.0031,-0.0051 -0.0028,-0.0054 -0.0026,-0.0054 -0.0023,-0.0056 -0.002,-0.0058 -0.0017,-0.0059 -0.0014,-0.0061 -0.0012,-0.0062 z m 2.60672,-0.233072 0.237942,-0.05677 -0.107352,0.15014 -0.0814,0.0076 -0.0814,0.0076 -0.0814,0.0076 -0.0814,0.0075 -0.0814,0.0076 -0.0814,0.0076 -0.08147,0.0076 -0.0814,0.0076 -0.0814,0.0075 -0.0814,0.0076 -0.0814,0.0076 -0.0814,0.0076 -0.0814,0.0076 -0.0814,0.0075 -0.0814,0.0076 -0.0814,0.0076 -0.0814,0.0076 -0.0814,0.0075 -0.0814,0.0076 -0.0814,0.0076 -0.0814,0.0076 -0.0814,0.0075 -0.0814,0.0076 -0.0814,0.0076 -0.0814,0.0076 -0.08147,0.0075 -0.0814,0.0076 -0.0814,0.0076 -0.0814,0.0076 -0.0814,0.0075 -0.0814,0.0076 -0.0814,0.0076 -0.02324,-0.243508 0.0814,-0.0076 0.0814,-0.0076 0.0814,-0.0075 0.0814,-0.0076 0.0814,-0.0076 0.0814,-0.0076 0.08147,-0.0075 0.0814,-0.0076 0.0814,-0.0076 0.0814,-0.0076 0.0814,-0.0075 0.0814,-0.0076 0.0814,-0.0076 0.0814,-0.0076 0.0814,-0.0075 0.0814,-0.0076 0.0814,-0.0076 0.0814,-0.0076 0.0814,-0.0075 0.0814,-0.0076 0.0814,-0.0076 0.0814,-0.0076 0.0814,-0.0076 0.0814,-0.0075 0.0814,-0.0076 0.08147,-0.0076 0.0814,-0.0076 0.0814,-0.0076 0.0814,-0.0075 0.0814,-0.0076 0.0814,-0.0076 0.0814,-0.0076 -0.107352,0.15014 z m 0.13059,0.09337 -0.02324,-0.243508 0.0063,-4.18e-4 0.0063,-1.39e-4 0.0061,2.09e-4 0.0061,4.87e-4 0.006,8.35e-4 0.006,0.0011 0.0058,0.0014 0.0057,0.0016 0.0056,0.0019 0.0055,0.0022 0.0054,0.0024 0.0053,0.0027 0.0051,0.0029 0.0049,0.0032 0.0048,0.0034 0.0046,0.0036 0.0045,0.0038 0.0042,0.0041 0.004,0.0042 0.0039,0.0045 0.0036,0.0047 0.0034,0.0048 0.0032,0.005 0.0029,0.0051 0.0027,0.0054 0.0025,0.0054 0.0022,0.0056 0.0019,0.0058 0.0016,0.0059 0.0014,0.006 10e-4,0.0061 7.65e-4,0.0063 4.18e-4,0.0063 1.39e-4,0.0063 -2.09e-4,0.0061 -4.87e-4,0.0061 -7.65e-4,0.006 -0.0011,0.006 -0.0014,0.0058 -0.0017,0.0057 -0.0019,0.0056 -0.0022,0.0055 -0.0024,0.0054 -0.0027,0.0052 -0.0029,0.0051 -0.0032,0.0049 -0.0034,0.0047 -0.0036,0.0047 -0.0038,0.0044 -0.004,0.0042 -0.0042,0.0041 -0.0045,0.0038 -0.0047,0.0036 -0.0048,0.0034 -0.005,0.0032 -0.0051,0.0029 -0.0054,0.0027 -0.0054,0.0024 -0.0056,0.0022 -0.0058,0.0019 -0.0059,0.0017 -0.006,0.0013 -0.0061,10e-4 -0.0063,7.65e-4 z m -0.78674,-7.37878 0.01336,-0.244899 0.115145,0.13539 -0.01913,0.203503 -0.01503,0.207678 -0.01176,0.211574 -0.0077,0.214635 -0.0047,0.21874 -0.0013,0.221036 0.0021,0.223749 0.0052,0.22681 0.0079,0.228828 0.01162,0.230846 0.01385,0.233211 0.01691,0.234463 0.01962,0.235924 0.02226,0.236899 0.02435,0.23829 0.02706,0.238499 0.02901,0.239403 0.03159,0.239194 0.0336,0.23996 0.03534,0.239403 0.03715,0.238847 0.03966,0.23829 0.0407,0.237316 0.04258,0.236551 0.04376,0.23495 0.0455,0.233629 0.04648,0.231541 0.04801,0.229872 0.04835,0.227645 0.05009,0.225141 0.051,0.222427 0.05141,0.219296 -0.237942,0.05677 -0.05211,-0.221244 -0.051,-0.223819 -0.05009,-0.226532 -0.04974,-0.228898 -0.04801,-0.231263 -0.04717,-0.233629 -0.0455,-0.23502 -0.04446,-0.236899 -0.04258,-0.237942 -0.0414,-0.239403 -0.03896,-0.240238 -0.03785,-0.240934 -0.03604,-0.241351 -0.0336,-0.241351 -0.03159,-0.241977 -0.02971,-0.241351 -0.02706,-0.241282 -0.02505,-0.240238 -0.02226,-0.239681 -0.01962,-0.238568 -0.01691,-0.237246 -0.01454,-0.235298 -0.01092,-0.234185 -0.0086,-0.232168 -0.0052,-0.229593 -0.0021,-0.227784 0.0013,-0.225071 0.0047,-0.221523 0.0084,-0.219366 0.01162,-0.215609 0.01572,-0.212409 0.01913,-0.20893 0.115145,0.13539 z m 0.128503,-0.109509 -0.243647,-0.02588 8.35e-4,-0.0063 0.0011,-0.0061 0.0014,-0.006 0.0017,-0.0059 0.002,-0.0058 0.0022,-0.0056 0.0025,-0.0055 0.0028,-0.0053 0.003,-0.0051 0.0033,-0.0049 0.0035,-0.0048 0.0037,-0.0046 0.0039,-0.0044 0.0041,-0.0042 0.0042,-0.004 0.0045,-0.0038 0.0047,-0.0036 0.0048,-0.0033 0.005,-0.0031 0.0051,-0.0029 0.0053,-0.0026 0.0054,-0.0024 0.0056,-0.0022 0.0056,-0.0018 0.0058,-0.0016 0.0058,-0.0013 0.006,-10e-4 0.006,-7.66e-4 0.0061,-4.17e-4 0.0062,-1.39e-4 0.0063,2.09e-4 0.0063,4.87e-4 0.0063,8.34e-4 0.0061,0.0011 0.0061,0.0014 0.0058,0.0017 0.0058,0.0019 0.0056,0.0023 0.0055,0.0025 0.0053,0.0028 0.0051,0.003 0.0049,0.0033 0.0048,0.0035 0.0046,0.0037 0.0045,0.0039 0.0042,0.0041 0.004,0.0043 0.0038,0.0045 0.0036,0.0047 0.0033,0.0049 0.0031,0.0049 0.0029,0.0051 0.0026,0.0053 0.0024,0.0054 0.0022,0.0055 0.0019,0.0057 0.0016,0.0058 0.0013,0.0058 0.001,0.006 6.96e-4,0.006 4.87e-4,0.0061 1.39e-4,0.0062 -2.09e-4,0.0063 -4.87e-4,0.0063 z m -2.68902,-0.160646 -0.244204,-0.0103 0.128781,-0.117301 0.08404,0.0048 0.08404,0.0047 0.08404,0.0048 0.08405,0.0048 0.08398,0.0047 0.08404,0.0048 0.08404,0.0047 0.08404,0.0048 0.08404,0.0048 0.08405,0.0047 0.08405,0.0048 0.08404,0.0048 0.08405,0.0047 0.08404,0.0048 0.08404,0.0047 0.08404,0.0048 0.08404,0.0048 0.08404,0.0047 0.08432,0.0051 0.0837,0.0045 0.08404,0.0047 0.08404,0.0048 0.08404,0.0048 0.08404,0.0047 0.08404,0.0048 0.08405,0.0048 0.08404,0.0047 0.08405,0.0048 0.08405,0.0048 0.08404,0.0048 0.08404,0.0047 0.08404,0.0048 -0.01336,0.244899 -0.08404,-0.0048 -0.08404,-0.0047 -0.08405,-0.0048 -0.08404,-0.0048 -0.08404,-0.0048 -0.08404,-0.0047 -0.08404,-0.0048 -0.08405,-0.0048 -0.08404,-0.0047 -0.08404,-0.0048 -0.08404,-0.0048 -0.08404,-0.0047 -0.08439,-0.0051 -0.08363,-0.0045 -0.08404,-0.0047 -0.08404,-0.0048 -0.08404,-0.0048 -0.08404,-0.0047 -0.08404,-0.0048 -0.08405,-0.0047 -0.08404,-0.0048 -0.08404,-0.0048 -0.08404,-0.0047 -0.08405,-0.0048 -0.08404,-0.0048 -0.08404,-0.0047 -0.08404,-0.0048 -0.08398,-0.0047 -0.08404,-0.0048 -0.08405,-0.0048 -0.08404,-0.0047 -0.08404,-0.0048 0.128781,-0.117301 z m -0.115423,-0.127598 -0.01336,0.244899 -0.0063,-4.87e-4 -0.0062,-8.35e-4 -0.0061,-0.0011 -0.006,-0.0015 -0.0058,-0.0017 -0.0057,-0.0019 -0.0056,-0.0023 -0.0055,-0.0025 -0.0053,-0.0027 -0.0051,-0.003 -0.005,-0.0033 -0.0048,-0.0035 -0.0046,-0.0037 -0.0045,-0.0039 -0.0042,-0.0041 -0.004,-0.0042 -0.0038,-0.0045 -0.0036,-0.0047 -0.0034,-0.0048 -0.0031,-0.005 -0.0029,-0.0051 -0.0026,-0.0053 -0.0024,-0.0054 -0.0022,-0.0056 -0.0019,-0.0057 -0.0016,-0.0058 -0.0014,-0.0059 -10e-4,-0.006 -6.95e-4,-0.0061 -4.87e-4,-0.0062 -1.4e-4,-0.0062 2.09e-4,-0.0063 4.87e-4,-0.0063 8.35e-4,-0.0062 0.0011,-0.0061 0.0014,-0.006 0.0017,-0.0058 0.002,-0.0057 0.0022,-0.0056 0.0025,-0.0054 0.0027,-0.0053 0.003,-0.0051 0.0033,-0.0049 0.0034,-0.0048 0.0037,-0.0046 0.0039,-0.0045 0.0041,-0.0042 0.0042,-0.004 0.0045,-0.0038 0.0047,-0.0036 0.0048,-0.0033 0.005,-0.0031 0.0051,-0.0029 0.0053,-0.0026 0.0055,-0.0024 0.0055,-0.0022 0.0057,-0.0019 0.0058,-0.0016 0.0059,-0.0013 0.006,-10e-4 0.0061,-7.66e-4 0.0062,-4.17e-4 0.0062,-1.39e-4 0.0063,2.08e-4 z"
           style="fill:#2b0f02;fill-rule:nonzero" /><path
         class="fil18"
         d="m 12.241,40.045 c -0.01795,0.433027 -0.01565,0.877533 0.0024,1.32914 1.01139,0.0135 1.95488,0.02338 2.62676,0.02992 0.0015,-0.418973 0.02059,-0.823196 0.06011,-1.2062 -0.896457,-0.051 -1.79291,-0.101926 -2.6893,-0.152853 z"
         id="path102"
         style="fill:#823e1d" /><path
         class="fil6"
         d="m 26.9215,33.488 c 6.1874,-0.162663 12.3043,0.09789 18.3363,0.869393 -0.01642,0.135808 0.112709,0.271825 0.09629,0.407493 -0.07493,0.618858 -0.07897,1.26708 -0.186318,1.88593 -0.01983,0.114657 -0.212269,0.200164 -0.226115,0.314752 -5.76599,-0.561877 -11.7872,-0.527786 -18.0202,0 0,-0.213939 -0.154175,-0.398797 -0.167186,-0.612736 -0.04668,-0.764059 -0.0077,-1.55741 -0.0077,-2.32154 0,-0.1811 0.174908,-0.362201 0.174908,-0.543301 z"
         id="path104"
         style="fill:#cc6633" /><path
         class="fil20"
         d="m 40.2167,36.6387 c -4.30773,-0.180683 -8.745,-0.05844 -13.2953,0.326857 0,-0.213939 -0.154175,-0.398797 -0.167186,-0.612736 -0.03047,-0.498217 -0.02428,-1.00903 -0.01642,-1.51594 0.557633,-0.176996 1.72779,-0.530847 2.0358,-0.486877 0.408606,0.05837 0,0.466979 0.350234,0.700468 0.350234,0.233489 1.98466,-0.350234 1.98466,-0.350234 l 0.350234,0.350234 -0.291862,0.233489 1.34256,-0.175117 1.86792,-0.233489 c 0,0 0.933958,-0.525351 0.817213,0 -0.116745,0.525351 0.291862,0.700468 0.291862,0.700468 l 2.62676,-0.525351 c 0,0 1.16745,-0.408606 0.933958,0.175117 -0.233489,0.583724 0.291862,0.99233 0.291862,0.99233 l 0.877672,0.420782 z"
         id="path106"
         style="fill:#b85a2b" /><polygon
         class="fil0 str6"
         points="23.9181,43.5255 17.5162,45.7385 17.042,42.4981 23.602,41.0754 "
         id="polygon108"
         style="fill:#7f7f7f;stroke:#000000;stroke-width:0.245456;stroke-linecap:round;stroke-linejoin:round" /><path
         class="fil0 str9"
         d="m 44.7836,22.7391 c 0,0 -4.26793,-1.58071 -4.82118,2.37107 -0.55325,3.95179 4.18889,2.68722 4.18889,2.68722 l 0.632286,-5.05829 z"
         id="path110"
         style="fill:#7f7f7f;stroke:#333333;stroke-width:0.245456;stroke-linecap:round;stroke-linejoin:round" /><path
         class="fil21"
         d="m 43.4585,23.5533 c 0.572592,0.436714 0.586298,1.3818 0.03054,2.11059 -0.555755,0.728785 -1.47086,0.965683 -2.04345,0.529039 -0.572592,-0.436645 -0.702903,-1.46926 -0.147148,-2.19804 0.555755,-0.728785 1.58746,-0.878229 2.16006,-0.441584 z"
         id="path112"
         style="fill:#b2b2b2" /><path
         class="fil22"
         d="m 43.5602,23.6696 c 0.572592,0.436714 0.586298,1.3818 0.03054,2.11059 -0.555755,0.728785 -1.47086,0.965683 -2.04345,0.529039 -0.572592,-0.436714 -0.586298,-1.3818 -0.03054,-2.11059 0.555755,-0.728785 1.47086,-0.965683 2.04345,-0.529039 z"
         id="path114"
         style="fill:url(#id6)" /><path
         class="fil16"
         d="m 31.2683,8.21533 c 0,0 -1.73886,2.92794 -1.93645,3.64017 -0.197589,0.712226 -1.1065,3.36319 -1.1065,3.36319 -0.158071,0.03952 -0.31823,0.165516 -0.474214,0.118693 -0.400814,-0.120293 -0.737621,-0.424817 -1.1065,-0.622615 -0.658585,0.699007 -1.18595,1.46418 -1.97589,2.12617 -0.05997,0.0503 -1.54127,0.593533 -2.13403,-0.395666 -0.592768,-0.989199 -1.46216,-2.61138 -2.01541,-2.76966 -0.55325,-0.15828 -3.04295,0.98913 -3.04295,0.98913 -0.105335,-0.896875 -0.210739,-1.79375 -0.316143,-2.69055 0.886439,-0.410833 1.72536,-0.668464 2.42583,-1.34917 0.720575,-0.70019 0.797663,-1.73141 1.02134,-2.74301 0.36888,-0.725376 1.32141,-1.27563 1.69022,-2.00108 2.00226,-0.065956 4.00452,-0.131912 6.00679,-0.197868 0.988016,0.844138 1.97596,1.68821 2.96391,2.53227 z"
         id="path116"
         style="fill:#fad7a3" /><path
         class="fil23"
         d="m 22.978,16.8704 c -0.170803,-0.09142 -0.324909,-0.227645 -0.443254,-0.425165 -0.592768,-0.989199 -1.46216,-2.61138 -2.01541,-2.76966 -0.55325,-0.15828 -3.04295,0.98913 -3.04295,0.98913 -0.105335,-0.896875 -0.210739,-1.79375 -0.316143,-2.69055 0.886439,-0.410833 1.72536,-0.668464 2.42583,-1.34917 0.720575,-0.70019 0.797663,-1.73141 1.02134,-2.74301 0.36888,-0.725376 1.32141,-1.27563 1.69022,-2.00108 2.00226,-0.065956 4.00452,-0.131912 6.00679,-0.197868 l 2.31465,1.9777 -0.327692,0.538431 -1.34256,0.175117 -0.583724,-0.233489 c 0,0 -2.1014,0.817213 -2.62676,0.817213 -0.525351,0 -2.04303,-0.642096 -2.04303,-0.642096 l -0.642096,-0.817213 -1.51768,0.99233 -0.291862,1.75117 c 0,0 -0.233489,2.86025 0.408606,3.73583 0.484164,0.660185 1.06789,2.18301 1.32573,2.89239 z"
         id="path118"
         style="fill:#ebb681" /><path
         class="fil24 str10"
         d="m 31.2683,8.21533 c 0,0 -1.73886,2.92794 -1.93645,3.64017 -0.197589,0.712226 -1.1065,3.36319 -1.1065,3.36319 -0.158071,0.03952 -0.31823,0.165516 -0.474214,0.118693 -0.400814,-0.120293 -0.737621,-0.424817 -1.1065,-0.622615 -0.658585,0.699007 -1.18595,1.46418 -1.97589,2.12617 -0.05997,0.0503 -1.54127,0.593533 -2.13403,-0.395666 -0.592768,-0.989199 -1.46216,-2.61138 -2.01541,-2.76966 -0.55325,-0.15828 -3.04295,0.98913 -3.04295,0.98913 -0.105335,-0.896875 -0.210739,-1.79375 -0.316143,-2.69055 0.886439,-0.410833 1.72536,-0.668464 2.42583,-1.34917 0.720575,-0.70019 0.797663,-1.73141 1.02134,-2.74301 0.36888,-0.725376 1.32141,-1.27563 1.69022,-2.00108 2.00226,-0.065956 4.00452,-0.131912 6.00679,-0.197868 0.988016,0.844138 1.97596,1.68821 2.96391,2.53227 z"
         id="path120"
         style="fill:none;stroke:#543714;stroke-width:0.245456;stroke-linecap:round;stroke-linejoin:round" /><path
         class="fil25 str6"
         d="m 21.0726,2.08248 c 0,0 2.46284,-2.21126 4.39379,-1.93679 1.93095,0.274468 5.04688,2.46674 5.05112,3.36125 0.0042,0.894509 2.9047,0.87642 3.37426,4.15884 0.249422,1.74366 -0.806638,2.11692 -1.69447,2.12311 -0.783331,0.0055 -1.18352,-0.222566 -1.71931,-0.782148 -1.14324,-1.19395 -2.09452,-1.50356 -2.09452,-1.50356 0,0 -2.17348,1.14734 -3.20095,0.98913 C 24.797221,8.4330352 24.36482,8.333962 23.97486,8.233359 23.324972,8.065756 22.76365,8.068608 22.76365,8.068608 l -0.876072,1.08994 -1.17065,0.125094 -1.26457,-2.96746 c 0,0 0.513732,-2.69055 1.62023,-4.2337 z"
         id="path122"
         style="fill:url(#linearGradient3512);stroke:#000000;stroke-width:0.245456;stroke-linecap:round;stroke-linejoin:round" /><path
         class="fil26 str6"
         d="m 19.808,6.75136 c 0,0 -2.13403,-1.46397 -2.64777,-1.46397 -0.513732,0 -1.77823,0.276973 -2.56866,1.0683 -0.790427,0.791331 -2.84536,2.2553 -3.95186,2.2553 -1.1065,0 -2.76632,-0.672639 -2.96391,-1.42438 -0.197589,-0.751744 -0.671804,1.66177 0.197589,2.49269 0.869393,0.830919 3.31957,2.2553 3.8333,2.29489 0.513732,0.03959 3.95186,-0.712157 4.22848,-0.751744 0.276625,-0.03959 3.12191,-1.62225 3.12191,-1.62225 l 0.513802,-0.870437 0.237107,-1.9784 z"
         id="path124"
         style="fill:url(#id8);stroke:#000000;stroke-width:0.245456;stroke-linecap:round;stroke-linejoin:round" /><path
         class="fil11"
         d="m 26.9332,11.4584 c 0.05559,-0.02971 0.10116,-0.06157 0.178735,-0.102273 0,0 0.106587,0.330753 0.401788,0.399353 0.217696,0.05051 0.723288,0.0535 0.939524,0.06498 0.07827,0.0042 0.05851,0.0318 0.05851,0.0318 -0.362897,-0.0066 -0.728298,0.09149 -1.08131,-0.01245 -0.217766,-0.06415 -0.337572,-0.214009 -0.497243,-0.381403 z"
         id="path126"
         style="fill:#191919" /><path
         class="fil27"
         d="m 35.5363,29.0275 0.237107,0.830919 c 0,0 1.18554,-0.830919 1.93638,-0.830919 0.75084,0 1.73879,0.712226 1.73879,0.712226 l 0,-0.474771 c 0,0 -0.790357,-1.10789 -1.58071,-1.10789 -0.790357,0 -2.33155,0.870437 -2.33155,0.870437 z"
         id="path128"
         style="fill:#cccccc" /><path
         class="fil13 str7"
         d="m 15.6981,10.9851 c 0.777138,-0.05274 1.55435,-0.105474 2.33155,-0.15828 0.0567,1.69078 0.259301,3.53699 0.316143,5.53932 -0.895762,0.50114 -1.79152,1.00235 -2.68722,1.50356 0.130242,-2.23172 0.221175,-4.49752 0.03952,-6.8846 z"
         id="path130"
         style="fill:#99cc66;stroke:#1f3b08;stroke-width:0.245456;stroke-linecap:round;stroke-linejoin:round" /><path
           class="fil6"
           d="m 1.55247,38.6431 c 5.03533,-0.590472 9.64702,-0.458143 14.223,-0.264728 0.142557,0.816378 0.285183,1.6329 0.427809,2.44934 C 11.430169,40.57829 6.583389,40.64028 1.663179,41.01403 1.6262354,40.223742 1.5893613,39.43338 1.552487,38.6431 Z"
           id="path134"
           style="fill:#cc6633" /><path
           id="path136"
           class="fil7"
           d="m 15.8958,38.3575 -0.240725,0.04188 0.115353,0.10116 -0.428783,-0.0176 -0.429339,-0.01746 -0.429757,-0.01684 -0.429826,-0.01649 -0.430313,-0.01496 -0.431218,-0.01426 -0.431148,-0.01329 -0.432609,-0.01204 -0.432679,-0.01071 -0.433514,-0.0093 -0.435114,-0.0077 -0.435392,-0.0061 -0.436506,-0.0042 -0.437619,-0.0022 -0.439497,-2.09e-4 -0.440123,0.0019 -0.441445,0.0043 -0.442837,0.0067 -0.444367,0.0093 -0.44555,0.01148 -0.44715,0.01503 -0.449307,0.0176 -0.450977,0.02059 -0.452855,0.02372 -0.454456,0.02665 -0.456751,0.0304 -0.458073,0.03388 -0.460995,0.03757 -0.462804,0.04091 -0.465379,0.04515 -0.467118,0.04912 -0.47011,0.05329 -0.028664,-0.243508 0.471501,-0.05329 0.469762,-0.04912 0.46677,-0.04515 0.464892,-0.0416 0.462248,-0.03757 0.460856,-0.03388 0.458143,-0.0304 0.456404,-0.02734 0.454247,-0.02372 0.452368,-0.02059 0.450559,-0.0176 0.449238,-0.01433 0.447637,-0.01217 0.44562,-0.0093 0.444228,-0.0067 0.442837,-0.0043 0.441515,-0.0019 0.439497,2.09e-4 0.438871,0.0022 0.437897,0.0042 0.436784,0.0061 0.435114,0.0077 0.434905,0.0093 0.433931,0.01071 0.432609,0.01204 0.43254,0.01329 0.431218,0.01426 0.431009,0.01565 0.430522,0.01579 0.429757,0.01684 0.429339,0.01746 0.429479,0.0183 0.115353,0.10116 z m -0.125372,0.143044 0.01002,-0.244204 0.0063,4.17e-4 0.0062,6.96e-4 0.0061,0.001 0.006,0.0013 0.0058,0.0016 0.0057,0.0019 0.0056,0.0022 0.0054,0.0024 0.0054,0.0027 0.0051,0.0029 0.0049,0.0031 0.0049,0.0034 0.0046,0.0036 0.0045,0.0038 0.0042,0.004 0.004,0.0042 0.0039,0.0045 0.0037,0.0046 0.0034,0.0047 0.0032,0.0049 0.003,0.0051 0.0027,0.0052 0.0025,0.0054 0.0022,0.0055 0.0019,0.0056 0.0017,0.0058 0.0014,0.0058 0.0012,0.006 8.35e-4,0.0061 4.87e-4,0.0061 2.09e-4,0.0063 -7e-5,0.0063 -4.17e-4,0.0063 -6.96e-4,0.0062 -10e-4,0.0061 -0.0013,0.006 -0.0016,0.0058 -0.0019,0.0057 -0.0022,0.0056 -0.0024,0.0054 -0.0026,0.0053 -0.0029,0.0051 -0.0031,0.005 -0.0034,0.0048 -0.0035,0.0047 -0.0038,0.0045 -0.004,0.0042 -0.0042,0.0041 -0.0044,0.0038 -0.0046,0.0037 -0.0048,0.0034 -0.0049,0.0032 -0.0051,0.003 -0.0053,0.0027 -0.0054,0.0025 -0.0055,0.0022 -0.0056,0.002 -0.0058,0.0017 -0.0058,0.0014 -0.006,0.0011 -0.0061,8.35e-4 -0.0061,4.87e-4 -0.0063,2.08e-4 -0.0063,-6.9e-5 z m 0.426487,2.44934 0.01266,-0.244204 -0.126694,0.143044 -0.01336,-0.07653 -0.01336,-0.07653 -0.01343,-0.07653 -0.01336,-0.0766 -0.01336,-0.07653 -0.01336,-0.07653 -0.01336,-0.07653 -0.01336,-0.07653 -0.01343,-0.0766 -0.01336,-0.07653 -0.01336,-0.07653 -0.01336,-0.07653 -0.01336,-0.07653 -0.01343,-0.0766 -0.01336,-0.07653 -0.01336,-0.07653 -0.01336,-0.07653 -0.01336,-0.07653 -0.01336,-0.07653 -0.01343,-0.0766 -0.01336,-0.07653 -0.01336,-0.07653 -0.01336,-0.07653 -0.01336,-0.07653 -0.01336,-0.07653 -0.01336,-0.07653 -0.01336,-0.0766 -0.01343,-0.07653 -0.01336,-0.07653 -0.01336,-0.07653 -0.01336,-0.07653 -0.01336,-0.07653 0.240725,-0.04188 0.01336,0.07653 0.01336,0.07653 0.01336,0.07653 0.01336,0.07653 0.01343,0.07653 0.01336,0.0766 0.01336,0.07653 0.01336,0.07653 0.01336,0.07653 0.01336,0.07653 0.01336,0.07653 0.01336,0.07653 0.01343,0.0766 0.01336,0.07653 0.01336,0.07653 0.01336,0.07653 0.01336,0.07653 0.01336,0.07653 0.01343,0.0766 0.01336,0.07653 0.01336,0.07653 0.01336,0.07653 0.01336,0.07653 0.01343,0.0766 0.01336,0.07653 0.01336,0.07653 0.01336,0.07653 0.01336,0.07653 0.01336,0.0766 0.01343,0.07653 0.01336,0.07653 0.01336,0.07653 -0.126694,0.143044 z m -0.114031,-0.10116 0.240725,-0.04188 9.04e-4,0.0062 6.27e-4,0.0062 2.78e-4,0.0062 0,0.0061 -3.48e-4,0.0061 -6.26e-4,0.006 -9.05e-4,0.0059 -0.0012,0.0058 -0.0015,0.0058 -0.0017,0.0056 -0.002,0.0055 -0.0023,0.0055 -0.0025,0.0053 -0.0028,0.0051 -0.0031,0.005 -0.0032,0.0049 -0.0035,0.0047 -0.0037,0.0045 -0.004,0.0044 -0.0041,0.0042 -0.0043,0.004 -0.0045,0.0038 -0.0047,0.0035 -0.0049,0.0033 -0.0051,0.0031 -0.0052,0.0029 -0.0054,0.0026 -0.0056,0.0024 -0.0057,0.0021 -0.0059,0.0018 -0.006,0.0015 -0.0062,0.0013 -0.0062,9.04e-4 -0.0062,6.26e-4 -0.0062,2.79e-4 -0.0061,-7e-5 -0.0061,-2.78e-4 -0.006,-6.26e-4 -0.0059,-9.74e-4 -0.0058,-0.0012 -0.0058,-0.0015 -0.0056,-0.0018 -0.0056,-0.002 -0.0054,-0.0022 -0.0054,-0.0026 -0.0051,-0.0028 -0.005,-0.003 -0.0049,-0.0033 -0.0047,-0.0035 -0.0046,-0.0038 -0.0044,-0.0039 -0.0042,-0.0041 -0.004,-0.0044 -0.0038,-0.0045 -0.0035,-0.0047 -0.0033,-0.0049 -0.0031,-0.0051 -0.0029,-0.0052 -0.0026,-0.0054 -0.0024,-0.0056 -0.0021,-0.0057 -0.0018,-0.0059 -0.0015,-0.006 -0.0013,-0.0062 z m -14.5422,0.170734 0.244899,-0.01071 -0.131703,-0.116745 0.461065,-0.03409 0.461274,-0.03235 0.460926,-0.03047 0.460021,-0.02894 0.459674,-0.02651 0.459604,-0.02498 0.458839,-0.02352 0.4587,-0.02136 0.458004,-0.01913 0.457447,-0.01809 0.457447,-0.01586 0.45703,-0.01398 0.455847,-0.01225 0.456195,-0.01037 0.455638,-0.0086 0.45529,-0.0067 0.454177,-0.0049 0.454386,-0.0031 0.454038,-0.0013 0.453203,2.09e-4 0.452716,0.0028 0.452716,0.0042 0.452229,0.006 0.451186,0.0079 0.451394,0.0097 0.450907,0.01155 0.450559,0.01329 0.449377,0.01517 0.449725,0.01705 0.449238,0.01879 0.448472,0.02101 0.448333,0.02247 -0.01266,0.244204 -0.447081,-0.02247 -0.447776,-0.02032 -0.447846,-0.01879 -0.448333,-0.01705 -0.449377,-0.01517 -0.449168,-0.01329 -0.449655,-0.01155 -0.450003,-0.0097 -0.451186,-0.0079 -0.450838,-0.006 -0.451325,-0.0042 -0.45216,-0.0021 -0.452507,-9.04e-4 -0.4526474,0.0013 -0.452994,0.0031 -0.454177,0.0049 -0.453899,0.0067 -0.454386,0.0086 -0.454803,0.01037 -0.455847,0.01225 -0.455638,0.01398 -0.456056,0.01586 -0.456891,0.01739 -0.457308,0.01983 -0.457308,0.02136 -0.458143,0.02282 -0.458213,0.02498 -0.458978,0.0272 -0.459465,0.02825 -0.459534,0.03047 -0.459882,0.03235 -0.461065,0.03409 -0.131703,-0.116745 z m 0.113196,-0.127459 0.018507,0.244204 -0.00626,2.78e-4 -0.00626,0 -0.00619,-2.78e-4 -0.00605,-6.26e-4 -0.00605,-9.74e-4 -0.00591,-0.0012 -0.00577,-0.0015 -0.00577,-0.0017 -0.00557,-0.002 -0.0055,-0.0024 -0.00529,-0.0025 -0.00522,-0.0029 -0.00501,-0.0031 -0.00494,-0.0033 -0.00473,-0.0035 -0.00452,-0.0038 -0.00438,-0.0039 -0.00417,-0.0042 -0.00397,-0.0043 -0.00376,-0.0045 -0.00355,-0.0047 -0.00334,-0.0049 -0.00306,-0.0051 -0.00285,-0.0052 -0.00264,-0.0054 -0.00237,-0.0055 -0.00209,-0.0057 -0.00181,-0.0058 -0.00153,-0.0059 -0.00118,-0.0061 -9.741e-4,-0.0062 -6.261e-4,-0.0063 -3.479e-4,-0.0063 6.96e-5,-0.0063 2.783e-4,-0.0062 6.261e-4,-0.0061 9.045e-4,-0.0061 0.00125,-0.0059 0.00146,-0.0058 0.00174,-0.0057 0.00209,-0.0056 0.0023,-0.0054 0.0025,-0.0054 0.00285,-0.0052 0.00299,-0.005 0.00327,-0.0049 0.00355,-0.0047 0.00369,-0.0045 0.00397,-0.0044 0.0041,-0.0042 0.00438,-0.004 0.00452,-0.0038 0.00466,-0.0035 0.00494,-0.0033 0.00501,-0.0031 0.00522,-0.0029 0.00543,-0.0026 0.0055,-0.0023 0.00571,-0.0021 0.00577,-0.0018 0.00591,-0.0015 0.00605,-0.0013 0.00619,-9.05e-4 0.00626,-6.26e-4 z m -0.115771,-2.37059 0.028664,0.243508 0.108118,-0.127111 0.00348,0.0741 0.00341,0.0741 0.00313,0.07375 0.00383,0.07444 0.00341,0.0741 0.00313,0.07375 0.00348,0.07403 0.00383,0.07444 0.00341,0.0741 0.00313,0.07375 0.00383,0.07444 0.00341,0.0741 0.00313,0.07375 0.00383,0.07444 0.00341,0.0741 0.00313,0.07375 0.00348,0.0741 0.00383,0.07444 0.00341,0.0741 0.00313,0.07375 0.00383,0.07444 0.00341,0.0741 0.00313,0.07375 0.00348,0.0741 0.00383,0.07444 0.00341,0.07403 0.00313,0.07375 0.00348,0.0741 0.00383,0.07444 0.00341,0.0741 0.00313,0.07375 0.00383,0.07444 -0.244899,0.01071 -0.00313,-0.07375 -0.00383,-0.07444 -0.00341,-0.0741 -0.00313,-0.07375 -0.00348,-0.0741 -0.00383,-0.07444 -0.00341,-0.07403 -0.00313,-0.07375 -0.00348,-0.0741 -0.00383,-0.07444 -0.00341,-0.0741 -0.00313,-0.07375 -0.00383,-0.07444 -0.00341,-0.0741 -0.00313,-0.07375 -0.00348,-0.0741 -0.00383,-0.07444 -0.00341,-0.0741 -0.00313,-0.07375 -0.00383,-0.07444 -0.00341,-0.0741 -0.00313,-0.07375 -0.00383,-0.07444 -0.00341,-0.0741 -0.00313,-0.07375 -0.00348,-0.07403 -0.00383,-0.07444 -0.00341,-0.0741 -0.00313,-0.07375 -0.00383,-0.07444 -0.00341,-0.0741 -0.00348,-0.0741 0.108118,-0.127111 z m 0.136782,0.116397 -0.244899,0.01071 -1.391e-4,-0.0063 2.087e-4,-0.0062 4.87e-4,-0.0062 8.349e-4,-0.0061 0.00111,-0.006 0.00139,-0.0059 0.00167,-0.0058 0.00195,-0.0056 0.00223,-0.0056 0.00244,-0.0054 0.00271,-0.0053 0.00299,-0.0051 0.0032,-0.0049 0.00341,-0.0048 0.00362,-0.0047 0.0039,-0.0044 0.00404,-0.0042 0.00431,-0.004 0.00445,-0.0038 0.00466,-0.0037 0.0048,-0.0034 0.00501,-0.0031 0.00515,-0.0029 0.00529,-0.0027 0.0055,-0.0024 0.00557,-0.0022 0.00577,-0.0019 0.00584,-0.0016 0.00598,-0.0013 0.00605,-10e-4 0.00626,-7.65e-4 0.00626,-4.18e-4 0.00633,-1.39e-4 0.00619,2.09e-4 0.00619,5.57e-4 0.00605,7.65e-4 0.00598,0.0011 0.00591,0.0014 0.00577,0.0017 0.00564,0.0019 0.00557,0.0022 0.00543,0.0025 0.00522,0.0027 0.00515,0.003 0.00494,0.0032 0.0048,0.0034 0.00459,0.0037 0.00445,0.0038 0.00424,0.0041 0.00404,0.0042 0.00383,0.0045 0.00369,0.0047 0.00341,0.0049 0.00313,0.0049 0.00292,0.0052 0.00271,0.0053 0.00243,0.0055 0.00223,0.0056 0.00188,0.0058 0.00167,0.0058 0.00132,0.006 0.00104,0.0061 7.653e-4,0.0063 4.174e-4,0.0063 z"
           style="fill:#2b0f02;fill-rule:nonzero" /><path
         class="fil13"
         d="m 11.0285,15.379 0.466979,1.57605 -2.45164,1.80954 -1.57605,0.350234 c 0,0 -1.6928,-0.583724 -1.16745,-0.99233 0.525351,-0.408606 4.78653,-2.80187 4.72816,-2.7435 z"
         id="path140"
         style="fill:#99cc66" /><path
         class="fil3"
         d="m 45.1826,36.5597 c -0.0048,0.0304 -0.0096,0.06081 -0.01482,0.09107 -0.01983,0.114657 -0.212269,0.200164 -0.226115,0.314752 -5.76599,-0.561877 -11.7872,-0.527786 -18.0202,0 0,-0.213939 -0.154175,-0.398797 -0.167186,-0.612736 l -7.66e-4,-0.01461 c 1.50439,-0.134138 4.09747,-0.334928 5.75597,-0.29541 2.23213,0.05316 9.49577,-0.03889 12.6731,0.516933 z"
         id="path142"
         style="fill:#8a3911" /><path
         class="fil3"
         d="m 3.57254,39.8244 c 0,0 0.495574,-0.262363 0.553876,-0.02915 0.058303,0.233211 0.174908,0.408119 -0.262363,0.320665 C 3.426782,40.028459 3.572539,39.8244 3.572539,39.8244 Z"
         id="path144"
         style="fill:#8a3911" /><path
         class="fil3"
         d="m 3.04232,39.154 c 0.262363,-0.02915 1.60333,-0.08745 1.77823,-0.0583 0.174908,0.02915 0.553876,0.145757 0.728785,0.174908 0.174908,0.02915 1.69078,0.291514 1.69078,0.291514 l 3.43986,0.320665 1.60333,0 0.02915,-0.145757 -1.63248,0 c 0,0 -3.2066496,-0.320665 -3.3524096,-0.320665 -0.145757,0 -1.31181,-0.233211 -1.66163,-0.320665 -0.349817,-0.08745 -0.874542,-0.116606 -0.874542,-0.116606 l -1.74908,0.174908 z"
         id="path146"
         style="fill:#8a3911" /><path
         class="fil3"
         d="m 4.9069,39.9115 c 0.262363,0 0.961996,-0.145757 0.961996,-0.145757 0,0 1.37012,0.02915 1.54502,0.116606 0.174908,0.08745 3.2358,0.116606 3.2358,0.116606 l 3.14835,0.02915 1.16606,0.145757 -1.1369,0 -3.14835,-0.0583 c 0,0 -3.03174,-0.02915 -3.26496,-0.0583 -0.233211,-0.02915 -1.51587,-0.116606 -1.51587,-0.116606 L 4.906899,39.9115 Z"
         id="path148"
         style="fill:#8a3911" /><path
         class="fil29"
         d="m 26.9215,33.488 c 6.1874,-0.162663 12.3043,0.09789 18.3363,0.869393 -0.01433,0.118693 0.08237,0.237455 0.09608,0.356078 -1.42139,-0.122658 -5.3896,-0.465796 -7.4741,-0.655315 -2.56838,-0.233489 -6.1291,-0.116745 -7.99701,-0.175117 -1.44964,-0.04529 -2.65285,0.01468 -3.1192,0.0439 0.04376,-0.146383 0.157932,-0.292557 0.157932,-0.438941 z"
         id="path150"
         style="fill:#ffa67a" /><path
         class="fil15"
         d="m 24.6226,24.0107 0.283235,0.664499 c 0,0 -9.60298,6.13285 -9.91913,6.25155 -0.316143,0.118693 -4.49766,1.46522 -6.08589,0.15828 -1.9928,-1.63985 -2.99515,-6.02926 -2.13397,-8.42774 0,0 0.12412,-1.87953 0.269529,-2.98889 l 0.197868,3.29905 c 0,0 0.583724,3.61916 0.933958,4.66979 0.350234,1.05063 1.98466,2.56838 1.98466,2.56838 l 0.583724,-1.16745 0.350234,1.0507 0.583724,-0.700468 0.583724,1.16745 1.63443,-0.466979 c 0,0 2.56838,-0.933958 3.61909,-1.75117 0.859096,-0.668186 5.46376,-3.36549 7.11482,-4.327 z"
         id="path152"
         style="fill:#4b8534" /><polygon
         class="fil30"
         points="12.3715,29.9429 12.768,28.5711 12.9548,29.626 "
         id="polygon154"
         style="fill:#669933" /><path
         class="fil31"
         d="m 21.0726,2.08248 c 0,0 2.46284,-2.21126 4.39379,-1.93679 1.93095,0.274468 5.04688,2.46674 5.05112,3.36125 0.0038,0.813456 2.40252,0.872385 3.1903,3.34503 C 33.29649,6.21544 32.825963,5.53369 32.50954,5.28058 31.925816,4.813601 30.40814,4.17151 30.40814,4.17151 l -0.583724,-1.16745 -2.51001,-1.6928 c 0,0 -1.63443,-0.700468 -2.45164,-0.642096 -0.817213,0.0583724 -3.09373,1.0507 -3.09373,1.0507 l -1.18867,1.18867 C 20.729115,2.613889 20.892891,2.33309 21.0726,2.082485 Z"
         id="path156"
         style="fill:#999999" /><path
         class="fil31"
         d="M 19.5175,6.55635 C 18.915896,6.157901 17.55636,5.28739 17.1602,5.28739 c -0.513732,0 -1.77823,0.276973 -2.56866,1.0683 -0.790427,0.791331 -2.84536,2.2553 -3.95186,2.2553 -1.1065,0 -2.76632,-0.672639 -2.96391,-1.42438 C 7.613988,6.951451 7.525143,7.025895 7.458839,7.264811 c 0.602578,0.520411 1.66455,1.37666 2.3438,1.57647 0.99233,0.291862 3.15211,-0.525351 3.85258,-0.817213 0.700468,-0.291862 2.27652,-2.04303 3.21048,-2.04303 0.933958,0 2.33489,1.0507 2.33489,1.0507 l 0.316908,-0.475397 z"
         id="path158"
         style="fill:#999999" /><path
         class="fil15"
         d="M 0.12725,25.886 C 0.12391,26.137926 0.122658,26.393749 0.123145,26.650546 L 0.696572,25.886 l -0.569322,0 z m 0.006331,1.74881 c 0.003618,0.188475 0.00821,0.375142 0.0134277,0.559373 l 0.783052,-1.02399 -0.79648,0.464613 z m 0.077366,2.08505 c 0.016976,0.297984 0.0359,0.573148 0.0559373,0.817978 l 1.36364,-1.26624 -1.41958,0.448263 z m 0.0743743,1.02997 c 0.0374307,0.406867 0.0782009,0.706104 0.11911,0.849495 0.020733,0.07263 0.0400049,0.160507 0.0578158,0.260136 l 2.10224,-1.42042 -2.27917,0.310786 z m 0.291792,2.10356 c 0.0315865,0.402067 0.0540588,0.831545 0.0697824,1.21392 L 2.5644859,32.4237 0.57711591,32.853387 Z m 0.873289,2.13953 c 0.46197,-0.149514 1.02962,-0.336041 1.39871,-0.467605 0.297497,-0.10603 1.50077,-0.642235 2.85934,-1.26255 -0.837876,0.11751 -1.65043,0.239821 -2.09326,0.328388 -0.593325,0.118693 -1.45778,0.779921 -2.16479,1.40177 z"
         id="path160"
         style="fill:#4b8534" /><path
         class="fil32 str11"
         d="m 18.5038,7.39402 c -0.276625,0.791331 -0.395179,1.85964 0.237107,2.01792 0.632286,0.15828 1.85741,-0.395666 1.85741,-0.395666 l -0.939384,-2.62829 c -0.686206,0.042927 -0.86821,0.185066 -1.15513,1.00604 z"
         id="path162"
         style="fill:url(#id5);stroke:#591414;stroke-width:0.245456;stroke-linecap:round;stroke-linejoin:round" /><path
         class="fil16 str10"
         d="M 23.6549,8.22834 C 23.58219,8.126554 23.087387,7.705285 22.680242,7.894247 c -0.407145,0.188962 -0.886578,1.01752 -0.930201,1.41012 -0.04362,0.392605 0.04432,1.03199 0.596803,1.03199 0.552485,0 0.653715,-0.02866 0.653715,-0.02866 L 23.6549,8.2283426 Z"
         id="path164"
         style="fill:#fad7a3;stroke:#543714;stroke-width:0.245456;stroke-linecap:round;stroke-linejoin:round" /><path
         class="fil16"
         d="M 23.9021,8.37375 23.465873,8.2138 c 0,0 -0.305359,0.538014 -0.348982,0.712504 -0.04362,0.174491 -0.450768,1.70129 -0.3199,1.73037 0.130868,0.02908 0.654341,-0.130868 0.712504,-0.203573 0.05816,-0.07271 0.392605,-2.07935 0.392605,-2.07935 z"
         id="path166"
         style="fill:#fad7a3" /><polygon
         class="fil12"
         points="20.0765,43.4856 19.9594,44.2149 21.0976,43.8358 23.9048,43.4228 23.9181,43.5255 17.5162,45.7385 17.3634,44.6947 19.6096,42.9308 21.3024,42.73 "
         id="polygon168"
         style="fill:#666666" /><path
         class="fil14"
         d="m 12.2276,28.5979 c 0.211713,-0.19265 0.388013,-0.519924 0.388013,-0.519924 0.223888,-0.06596 0.447846,-0.131912 0.671804,-0.197868 0,0 4.46552,-1.50349 5.69064,-2.21571 1.00694,-0.585393 3.50839,-2.88126 4.36749,-3.68045 l 0.224445,0.256518 -0.174908,0.233211 0,0.903693 -0.670482,-0.524725 0.233211,0.757936 -0.466422,-0.320665 c 0,0 -2.27381,1.95314 -2.59447,2.21551 -0.320665,0.262363 -3.1192,1.51587 -3.1192,1.51587 l -3.78968,1.25351 -0.437271,0.378968 c 0,0 -0.166907,-0.01878 -0.32317,-0.05587 z"
         id="path170"
         style="fill:#bcffa1" /><path
         class="fil11"
         d="m 24.0364,33.0919 c 0,0 0.390935,-0.248796 0.63973,-0.213243 0.248796,0.03555 0.426556,0.497591 0.426556,0.497591 L 24.036396,33.0919 Z"
         id="path172"
         style="fill:#191919" /><path
         class="fil33"
         d="m 1.55247,38.6431 c 5.03533,-0.590472 9.64702,-0.458143 14.223,-0.264728 l 0.07117,0.407772 c -0.697824,-5.57e-4 -5.50697,-0.0083 -6.1023101,-0.116606 -0.642096,-0.116745 -5.19514,0 -6.24584,0.175117 -0.589359,0.09824 -1.36246,0.159602 -1.92768,0.194667 L 1.552516,38.6431 Z"
         id="path174"
         style="fill:#e89b60" /><path
         class="fil18"
         d="M 3.5948,43.777 C 3.59313,43.86132 3.59104,43.945508 3.58847,44.029483 L 4.78263,43.222637 3.5948,43.777 Z m -0.057538,1.25567 c -0.00557,0.08008 -0.01148,0.160089 -0.017602,0.23989 L 4.95775,44.390087 3.53726,45.03267 Z m -0.123841,1.40469 c -0.01141,0.111109 -0.023099,0.22201 -0.034926,0.33291 l 1.87112,-1.21274 -1.83619,0.879829 z"
         id="path176"
         style="fill:#823e1d" /><path
         class="fil24 str5"
         d="m 26.9215,33.488 c 6.1874,-0.162663 12.3043,0.09789 18.3363,0.869393 -0.01642,0.135808 0.112709,0.271825 0.09629,0.407493 -0.07493,0.618858 -0.07897,1.26708 -0.186318,1.88593 -0.01983,0.114657 -0.212269,0.200164 -0.226115,0.314752 -5.76599,-0.561877 -11.7872,-0.527786 -18.0202,0 0,-0.213939 -0.154175,-0.398797 -0.167186,-0.612736 -0.04668,-0.764059 -0.0077,-1.55741 -0.0077,-2.32154 0,-0.1811 0.174908,-0.362201 0.174908,-0.543301 z"
         id="path178"
         style="fill:none;stroke:#2b0f02;stroke-width:0.245456;stroke-linecap:round;stroke-linejoin:round" />
 <animate 
    xlink:href="#girlGroup" begin="girlGroup.mouseover"
    attributeType="CSS" attributeName="opacity" from="1" to="0.5" dur="0.6s" repeatCount="0"
    fill="freeze" />
 <animate 
    xlink:href="#girlGroup" begin="girlGroup.mouseout"
    attributeType="CSS" attributeName="opacity" from="0.6" to="1" dur="0.2s" repeatCount="0"
    fill="freeze" />	
		 </g></a>
		 </svg>